<svg width="451" height="69" viewBox="0 0 451 69" fill="none" xmlns="http://www.w3.org/2000/svg">
<g filter="url(#filter0_d_115_600)">
<mask id="path-1-outside-1_115_600" maskUnits="userSpaceOnUse" x="4.13626" y="0.26001" width="443" height="61" fill="black">
<rect fill="white" x="4.13626" y="0.26001" width="443" height="61"/>
<path d="M34.6563 35.82L22.0563 35.76L19.3563 45.9C18.7563 48.18 18.1763 50.06 17.6163 51.54C17.0563 53.02 16.3163 54.52 15.3963 56.04C13.4763 59.08 10.6363 60.6 6.87626 60.6V59.88C9.87626 59.88 12.2163 58.86 13.8963 56.82C15.5763 54.82 16.9163 52.06 17.9163 48.54L18.5163 47.28L18.3963 47.22C17.0363 50.26 14.8763 51.78 11.9163 51.78C9.95626 51.78 8.33626 51.12 7.05626 49.8C5.77626 48.48 5.13626 46.82 5.13626 44.82C5.13626 38.3 10.5763 35.04 21.4563 35.04L27.4563 12.36L25.5963 12.3C25.4363 12.3 25.2763 12.3 25.1163 12.3C22.9163 12.3 21.1363 12.82 19.7763 13.86C18.4163 14.86 17.7363 16.2 17.7363 17.88C17.7363 18.68 17.8563 19.34 18.0963 19.86L17.6163 20.22C17.1763 19.74 16.9563 18.92 16.9563 17.76C16.9563 16.56 17.3763 15.44 18.2163 14.4C19.0563 13.32 20.1363 12.6 21.4563 12.24C21.8163 12.16 22.2763 12.08 22.8363 12V11.88L21.4563 11.94C17.6163 11.46 14.4963 10.38 12.0963 8.70001C9.69626 6.98001 8.49626 4.52001 8.49626 1.32001L9.21626 1.26001C9.21626 3.10001 9.67626 4.70001 10.5963 6.06001C11.5163 7.38001 12.7763 8.42001 14.3763 9.18001C17.4163 10.62 21.0163 11.42 25.1763 11.58L35.4963 12.06V44.58C35.4963 46.98 35.0563 48.78 34.1763 49.98C33.2963 51.14 31.7963 51.72 29.6763 51.72C28.5963 51.72 27.6963 51.6 26.9763 51.36L27.0963 50.76C27.9763 50.96 28.7763 51.06 29.4963 51.06C31.4963 51.06 32.8563 50.54 33.5763 49.5C34.2963 48.46 34.6563 46.82 34.6563 44.58V35.82ZM25.1163 35.04L34.6563 35.1V12.72L28.2363 12.42L22.2363 35.04H25.1163ZM5.97626 44.82C5.97626 46.58 6.53626 48.06 7.65626 49.26C8.77626 50.46 10.1963 51.06 11.9163 51.06C14.6763 51.06 16.7163 49.6 18.0363 46.68C18.7563 45.04 19.3763 43.12 19.8963 40.92L21.2763 35.76C11.0763 35.84 5.97626 38.86 5.97626 44.82ZM37.0563 44.58V14.7C37.0563 12.3 37.4963 10.52 38.3763 9.36001C39.2563 8.16001 40.7563 7.56001 42.8763 7.56001C43.9563 7.56001 44.8563 7.68001 45.5763 7.92001L45.4563 8.52001C44.5763 8.32001 43.7763 8.22001 43.0563 8.22001C41.0563 8.22001 39.6963 8.74001 38.9763 9.78001C38.2563 10.82 37.8963 12.46 37.8963 14.7V44.58C37.8963 46.82 38.2563 48.46 38.9763 49.5C39.6963 50.54 41.0563 51.06 43.0563 51.06C43.7763 51.06 44.5763 50.96 45.4563 50.76L45.5763 51.36C44.8563 51.6 43.9563 51.72 42.8763 51.72C40.7563 51.72 39.2563 51.14 38.3763 49.98C37.4963 48.78 37.0563 46.98 37.0563 44.58Z"/>
<path d="M76.3427 18.36C76.3427 16.12 75.9827 14.48 75.2627 13.44C74.5427 12.4 73.1827 11.88 71.1827 11.88C70.4627 11.88 69.6627 11.98 68.7827 12.18L68.6627 11.58C69.3827 11.34 70.2827 11.22 71.3627 11.22C73.4827 11.22 74.9827 11.82 75.8627 13.02C76.7427 14.18 77.1827 15.96 77.1827 18.36V47.52C74.3427 49.76 71.3627 51.22 68.2427 51.9C62.9227 51.86 59.3227 50.64 57.4427 48.24C55.6027 45.84 54.6827 41.76 54.6827 36C54.6827 32.76 54.8027 28.94 55.0427 24.54C55.2827 20.1 55.4027 17.78 55.4027 17.58C55.4027 15.74 55.0427 14.34 54.3227 13.38C53.6427 12.38 52.3227 11.88 50.3627 11.88C49.6427 11.88 48.8427 11.98 47.9627 12.18L47.8427 11.58C48.5627 11.34 49.4627 11.22 50.5427 11.22C53.6227 11.22 55.4227 12.54 55.9427 15.18C56.4227 12.54 58.2227 11.22 61.3427 11.22C62.4227 11.22 63.3227 11.34 64.0427 11.58L63.9227 12.18C63.0427 11.98 62.2427 11.88 61.5227 11.88C59.5627 11.88 58.2027 12.38 57.4427 13.38C56.7227 14.34 56.3227 16 56.2427 18.36C55.7627 29.72 55.5227 35.6 55.5227 36C55.5227 41.44 56.3627 45.3 58.0427 47.58C59.7627 49.86 63.1227 51.06 68.1227 51.18C71.3227 50.38 74.0627 49.02 76.3427 47.1V18.36ZM79.5827 18.36V44.58C79.5827 46.82 79.9427 48.46 80.6627 49.5C81.3827 50.54 82.7427 51.06 84.7427 51.06C85.4627 51.06 86.2627 50.96 87.1427 50.76L87.2627 51.36C86.5427 51.6 85.6427 51.72 84.5627 51.72C82.4427 51.72 80.9427 51.14 80.0627 49.98C79.1827 48.78 78.7427 46.98 78.7427 44.58V18.36C78.7427 15.96 79.1827 14.18 80.0627 13.02C80.9427 11.82 82.4427 11.22 84.5627 11.22C85.6427 11.22 86.5427 11.34 87.2627 11.58L87.1427 12.18C86.2627 11.98 85.4627 11.88 84.7427 11.88C82.7427 11.88 81.3827 12.4 80.6627 13.44C79.9427 14.48 79.5827 16.12 79.5827 18.36Z"/>
<path d="M89.6242 33.6C89.6242 29.16 90.8042 24.74 93.1642 20.34C95.5642 15.94 98.7442 12.84 102.704 11.04H102.824V31.44C103.504 31.92 103.984 32.52 104.264 33.24L104.624 34.56L104.744 34.5L104.444 33.18L104.384 11.04H105.044C109.564 11.04 112.464 11.54 113.744 12.54C115.144 13.58 115.844 15.04 115.844 16.92C115.844 18.76 115.404 20.2 114.524 21.24C113.684 22.24 112.564 22.74 111.164 22.74C109.804 22.74 108.724 22.34 107.924 21.54C107.124 20.7 106.724 19.62 106.724 18.3C106.724 17.82 106.824 17.34 107.024 16.86L107.684 17.1C107.564 17.54 107.504 17.94 107.504 18.3C107.504 19.42 107.824 20.32 108.464 21C109.144 21.68 110.064 22.02 111.224 22.02C112.384 22.02 113.304 21.58 113.984 20.7C114.664 19.82 115.004 18.8 115.004 17.64C115.004 16.44 114.824 15.48 114.464 14.76C114.104 14 113.664 13.44 113.144 13.08C112.664 12.68 111.944 12.38 110.984 12.18C109.624 11.9 107.704 11.76 105.224 11.76V51C109.224 50.28 112.524 48.8 115.124 46.56L115.724 47.16C112.684 49.64 108.984 51.2 104.624 51.84C99.3842 51.44 95.5642 49.7 93.1642 46.62C90.8042 43.54 89.6242 39.2 89.6242 33.6ZM104.384 36.78C104.384 33.1 102.804 31.26 99.6442 31.26C98.7242 31.26 97.9242 31.44 97.2442 31.8L96.9442 31.32C97.7442 30.84 98.6242 30.6 99.5842 30.6C100.584 30.6 101.384 30.74 101.984 31.02V12.24C98.4642 14.12 95.6642 17.12 93.5842 21.24C91.5042 25.32 90.4642 29.44 90.4642 33.6C90.4642 44.4 95.1042 50.22 104.384 51.06V36.78Z"/>
<path d="M134.218 44.52V12C134.618 11.96 135.338 11.92 136.378 11.88C137.418 11.84 138.898 11.78 140.818 11.7C142.778 11.62 144.638 11.4 146.398 11.04C148.158 10.64 149.838 10.06 151.438 9.30001C153.038 8.54001 154.298 7.50001 155.218 6.18001C156.138 4.82001 156.598 3.22001 156.598 1.38001L157.318 1.44001C157.318 4.64001 156.118 7.10001 153.718 8.82001C151.318 10.5 148.198 11.58 144.358 12.06C144.078 12.06 143.618 12.04 142.978 12V12.12C143.538 12.2 143.998 12.28 144.358 12.36C145.678 12.72 146.758 13.44 147.598 14.52C148.438 15.56 148.858 16.68 148.858 17.88C148.858 19.04 148.638 19.86 148.198 20.34L147.718 19.98C147.958 19.46 148.078 18.8 148.078 18C148.078 16.32 147.398 14.98 146.038 13.98C144.718 12.94 143.018 12.42 140.938 12.42C140.698 12.42 140.458 12.42 140.218 12.42L135.058 12.66V44.52C135.058 46.76 135.418 48.4 136.138 49.44C136.858 50.48 138.218 51 140.218 51C140.938 51 141.738 50.9 142.618 50.7L142.738 51.3C142.018 51.54 141.118 51.66 140.038 51.66C137.918 51.66 136.418 51.08 135.538 49.92C134.658 48.72 134.218 46.92 134.218 44.52ZM131.818 12.66L124.558 12.3C119.918 12.3 117.598 14.1 117.598 17.7C117.598 19.02 117.938 20.12 118.618 21C119.298 21.88 120.218 22.32 121.378 22.32C122.538 22.32 123.438 21.98 124.078 21.3C124.758 20.62 125.098 19.72 125.098 18.6C125.098 18.2 125.038 17.8 124.918 17.4L125.578 17.16C125.778 17.64 125.878 18.12 125.878 18.6C125.878 19.92 125.478 21 124.678 21.84C123.878 22.64 122.778 23.04 121.378 23.04C120.018 23.04 118.898 22.54 118.018 21.54C117.178 20.5 116.758 19.2 116.758 17.64C116.758 13.6 119.438 11.58 124.798 11.58C126.958 11.58 129.578 11.72 132.658 12V44.52C132.658 46.92 132.218 48.72 131.338 49.92C130.458 51.08 128.958 51.66 126.838 51.66C125.758 51.66 124.858 51.54 124.138 51.3L124.258 50.7C125.138 50.9 125.938 51 126.658 51C128.658 51 130.018 50.48 130.738 49.44C131.458 48.4 131.818 46.76 131.818 44.52V12.66Z"/>
<path d="M158.492 44.58V12.72L156.632 12.6C156.472 12.6 156.312 12.6 156.152 12.6C154.232 12.6 152.592 13.06 151.232 13.98C149.872 14.9 149.192 16.3 149.192 18.18C149.192 18.94 149.312 19.6 149.552 20.16L149.072 20.52C148.632 20.04 148.412 19.22 148.412 18.06C148.412 16.86 148.832 15.72 149.672 14.64C150.512 13.56 151.592 12.84 152.912 12.48C152.952 12.48 153.412 12.42 154.292 12.3V12.18L152.912 12.24C149.072 11.76 145.952 10.68 143.552 9.00001C141.152 7.28001 139.952 4.82001 139.952 1.62001L140.672 1.56001C140.672 3.40001 141.132 5.00001 142.052 6.36001C142.972 7.68001 144.232 8.72001 145.832 9.48001C148.792 10.84 152.392 11.64 156.632 11.88L159.332 12.06V44.58C159.332 46.98 158.892 48.78 158.012 49.98C157.132 51.14 155.632 51.72 153.512 51.72C152.432 51.72 151.532 51.6 150.812 51.36L150.932 50.76C151.812 50.96 152.612 51.06 153.332 51.06C155.332 51.06 156.692 50.54 157.412 49.5C158.132 48.46 158.492 46.82 158.492 44.58ZM160.892 44.58V14.7C160.892 12.3 161.332 10.52 162.212 9.36001C163.092 8.16001 164.592 7.56001 166.712 7.56001C167.792 7.56001 168.692 7.68001 169.412 7.92001L169.292 8.52001C168.412 8.32001 167.612 8.22001 166.892 8.22001C164.892 8.22001 163.532 8.74001 162.812 9.78001C162.092 10.82 161.732 12.46 161.732 14.7V44.58C161.732 46.82 162.092 48.46 162.812 49.5C163.532 50.54 164.892 51.06 166.892 51.06C167.612 51.06 168.412 50.96 169.292 50.76L169.412 51.36C168.692 51.6 167.792 51.72 166.712 51.72C164.592 51.72 163.092 51.14 162.212 49.98C161.332 48.78 160.892 46.98 160.892 44.58Z"/>
<path d="M174.115 31.38C174.115 24.26 176.395 17.92 180.955 12.36L181.555 12.78C177.155 18.1 174.955 24.3 174.955 31.38C174.955 41.18 177.855 47.36 183.655 49.92V26.4C181.855 24.48 180.955 22.2 180.955 19.56C180.955 16.92 181.735 14.84 183.295 13.32C184.895 11.8 186.895 11.04 189.295 11.04C191.735 11.04 193.835 11.58 195.595 12.66C197.355 13.7 198.735 15.16 199.735 17.04C201.575 20.68 202.495 25.18 202.495 30.54C202.495 38.74 200.255 45.66 195.775 51.3C193.815 51.7 192.015 51.9 190.375 51.9C188.775 51.9 187.335 51.76 186.055 51.48V28.26C185.535 28.02 185.015 27.66 184.495 27.18V51.06C177.575 48.78 174.115 42.22 174.115 31.38ZM190.135 29.28C189.055 29.28 187.975 29.08 186.895 28.68V50.94C188.335 51.1 189.695 51.18 190.975 51.18C192.255 51.18 193.695 51.02 195.295 50.7C197.295 48.06 198.855 44.98 199.975 41.46C201.095 37.94 201.655 34.62 201.655 31.5C201.655 28.34 201.435 25.7 200.995 23.58C200.595 21.46 199.935 19.48 199.015 17.64C198.135 15.8 196.875 14.36 195.235 13.32C193.595 12.28 191.635 11.76 189.355 11.76C187.115 11.76 185.295 12.44 183.895 13.8C182.495 15.16 181.795 17.04 181.795 19.44C181.795 21.84 182.575 23.96 184.135 25.8C185.735 27.64 187.735 28.56 190.135 28.56C191.815 28.56 193.155 28.06 194.155 27.06C195.195 26.06 195.715 24.72 195.715 23.04H196.555C196.555 24.88 195.955 26.38 194.755 27.54C193.555 28.7 192.015 29.28 190.135 29.28Z"/>
<path d="M216.91 14.94C215.23 12.86 213.37 11.82 211.33 11.82C210.33 11.82 209.39 11.92 208.51 12.12L208.39 11.52C209.11 11.28 210.01 11.16 211.09 11.16C213.53 11.16 215.65 12.24 217.45 14.4L234.67 35.58C237.31 38.86 239.05 41.82 239.89 44.46V18.3C239.89 15.98 239.51 14.32 238.75 13.32C238.03 12.32 236.69 11.82 234.73 11.82C234.01 11.82 233.21 11.92 232.33 12.12L232.21 11.52C232.93 11.28 233.83 11.16 234.91 11.16C238.03 11.16 239.83 12.48 240.31 15.12C240.83 12.48 242.63 11.16 245.71 11.16C246.79 11.16 247.69 11.28 248.41 11.52L248.29 12.12C247.41 11.92 246.61 11.82 245.89 11.82C243.89 11.82 242.53 12.34 241.81 13.38C241.09 14.42 240.73 16.06 240.73 18.3V50.94L239.71 51.12C238.31 46.96 236.25 43.2 233.53 39.84L217.21 19.62L216.73 18.42H216.61C216.81 19.02 216.91 19.48 216.91 19.8V44.52C216.91 46.84 217.27 48.5 217.99 49.5C218.75 50.5 220.11 51 222.07 51C222.79 51 223.59 50.9 224.47 50.7L224.59 51.3C223.87 51.54 222.97 51.66 221.89 51.66C218.77 51.66 216.97 50.34 216.49 47.7C215.97 50.34 214.17 51.66 211.09 51.66C210.01 51.66 209.11 51.54 208.39 51.3L208.51 50.7C209.39 50.9 210.19 51 210.91 51C212.91 51 214.27 50.48 214.99 49.44C215.71 48.4 216.07 46.76 216.07 44.52V17.16L216.25 17.1L234.07 39.24C236.75 42.52 238.69 45.94 239.89 49.5V47.28C239.61 44.28 237.67 40.56 234.07 36.12L216.91 14.94Z"/>
<path d="M269.761 18.36V30.6H290.341V18.36C290.341 16.12 289.981 14.48 289.261 13.44C288.541 12.4 287.181 11.88 285.181 11.88C284.461 11.88 283.661 11.98 282.781 12.18L282.661 11.58C283.381 11.34 284.281 11.22 285.361 11.22C287.481 11.22 288.981 11.82 289.861 13.02C290.741 14.18 291.181 15.96 291.181 18.36V44.58C291.181 46.98 290.741 48.78 289.861 49.98C288.981 51.14 287.481 51.72 285.361 51.72C284.281 51.72 283.381 51.6 282.661 51.36L282.781 50.76C283.661 50.96 284.461 51.06 285.181 51.06C287.181 51.06 288.541 50.54 289.261 49.5C289.981 48.46 290.341 46.82 290.341 44.58V31.32H269.761V44.58C269.761 46.9 270.121 48.56 270.841 49.56C271.601 50.56 272.961 51.06 274.921 51.06C275.641 51.06 276.441 50.96 277.321 50.76L277.441 51.36C276.721 51.6 275.821 51.72 274.741 51.72C271.621 51.72 269.821 50.4 269.341 47.76C268.821 50.4 267.021 51.72 263.941 51.72C262.861 51.72 261.961 51.6 261.241 51.36L261.361 50.76C262.241 50.96 263.041 51.06 263.761 51.06C265.761 51.06 267.121 50.54 267.841 49.5C268.561 48.46 268.921 46.82 268.921 44.58V18.36C268.921 16.12 268.561 14.48 267.841 13.44C267.121 12.4 265.761 11.88 263.761 11.88C263.041 11.88 262.241 11.98 261.361 12.18L261.241 11.58C261.961 11.34 262.861 11.22 263.941 11.22C267.021 11.22 268.821 12.54 269.341 15.18C269.821 12.54 271.621 11.22 274.741 11.22C275.821 11.22 276.721 11.34 277.441 11.58L277.321 12.18C276.441 11.98 275.641 11.88 274.921 11.88C272.961 11.88 271.601 12.38 270.841 13.38C270.121 14.38 269.761 16.04 269.761 18.36ZM293.581 18.36V44.58C293.581 46.82 293.941 48.46 294.661 49.5C295.381 50.54 296.741 51.06 298.741 51.06C299.461 51.06 300.261 50.96 301.141 50.76L301.261 51.36C300.541 51.6 299.641 51.72 298.561 51.72C296.441 51.72 294.941 51.14 294.061 49.98C293.181 48.78 292.741 46.98 292.741 44.58V18.36C292.741 15.96 293.181 14.18 294.061 13.02C294.941 11.82 296.441 11.22 298.561 11.22C299.641 11.22 300.541 11.34 301.261 11.58L301.141 12.18C300.261 11.98 299.461 11.88 298.741 11.88C296.741 11.88 295.381 12.4 294.661 13.44C293.941 14.48 293.581 16.12 293.581 18.36Z"/>
<path d="M305.951 31.38C305.951 24.26 308.231 17.92 312.791 12.36L313.391 12.78C308.991 18.1 306.791 24.3 306.791 31.38C306.791 41.18 309.691 47.36 315.491 49.92V26.4C313.691 24.48 312.791 22.2 312.791 19.56C312.791 16.92 313.571 14.84 315.131 13.32C316.731 11.8 318.731 11.04 321.131 11.04C323.571 11.04 325.671 11.58 327.431 12.66C329.191 13.7 330.571 15.16 331.571 17.04C333.411 20.68 334.331 25.18 334.331 30.54C334.331 38.74 332.091 45.66 327.611 51.3C325.651 51.7 323.851 51.9 322.211 51.9C320.611 51.9 319.171 51.76 317.891 51.48V28.26C317.371 28.02 316.851 27.66 316.331 27.18V51.06C309.411 48.78 305.951 42.22 305.951 31.38ZM321.971 29.28C320.891 29.28 319.811 29.08 318.731 28.68V50.94C320.171 51.1 321.531 51.18 322.811 51.18C324.091 51.18 325.531 51.02 327.131 50.7C329.131 48.06 330.691 44.98 331.811 41.46C332.931 37.94 333.491 34.62 333.491 31.5C333.491 28.34 333.271 25.7 332.831 23.58C332.431 21.46 331.771 19.48 330.851 17.64C329.971 15.8 328.711 14.36 327.071 13.32C325.431 12.28 323.471 11.76 321.191 11.76C318.951 11.76 317.131 12.44 315.731 13.8C314.331 15.16 313.631 17.04 313.631 19.44C313.631 21.84 314.411 23.96 315.971 25.8C317.571 27.64 319.571 28.56 321.971 28.56C323.651 28.56 324.991 28.06 325.991 27.06C327.031 26.06 327.551 24.72 327.551 23.04H328.391C328.391 24.88 327.791 26.38 326.591 27.54C325.391 28.7 323.851 29.28 321.971 29.28Z"/>
<path d="M368.725 18.36C368.725 16.12 368.365 14.48 367.645 13.44C366.925 12.4 365.565 11.88 363.565 11.88C362.845 11.88 362.045 11.98 361.165 12.18L361.045 11.58C361.765 11.34 362.665 11.22 363.745 11.22C365.865 11.22 367.365 11.82 368.245 13.02C369.125 14.18 369.565 15.96 369.565 18.36V47.52C366.725 49.76 363.745 51.22 360.625 51.9C355.305 51.86 351.705 50.64 349.825 48.24C347.985 45.84 347.065 41.76 347.065 36C347.065 32.76 347.185 28.94 347.425 24.54C347.665 20.1 347.785 17.78 347.785 17.58C347.785 15.74 347.425 14.34 346.705 13.38C346.025 12.38 344.705 11.88 342.745 11.88C342.025 11.88 341.225 11.98 340.345 12.18L340.225 11.58C340.945 11.34 341.845 11.22 342.925 11.22C346.005 11.22 347.805 12.54 348.325 15.18C348.805 12.54 350.605 11.22 353.725 11.22C354.805 11.22 355.705 11.34 356.425 11.58L356.305 12.18C355.425 11.98 354.625 11.88 353.905 11.88C351.945 11.88 350.585 12.38 349.825 13.38C349.105 14.34 348.705 16 348.625 18.36C348.145 29.72 347.905 35.6 347.905 36C347.905 41.44 348.745 45.3 350.425 47.58C352.145 49.86 355.505 51.06 360.505 51.18C363.705 50.38 366.445 49.02 368.725 47.1V18.36ZM371.965 18.36V44.58C371.965 46.82 372.325 48.46 373.045 49.5C373.765 50.54 375.125 51.06 377.125 51.06C377.845 51.06 378.645 50.96 379.525 50.76L379.645 51.36C378.925 51.6 378.025 51.72 376.945 51.72C374.825 51.72 373.325 51.14 372.445 49.98C371.565 48.78 371.125 46.98 371.125 44.58V18.36C371.125 15.96 371.565 14.18 372.445 13.02C373.325 11.82 374.825 11.22 376.945 11.22C378.025 11.22 378.925 11.34 379.645 11.58L379.525 12.18C378.645 11.98 377.845 11.88 377.125 11.88C375.125 11.88 373.765 12.4 373.045 13.44C372.325 14.48 371.965 16.12 371.965 18.36Z"/>
<path d="M404.807 35.46C404.807 34.34 404.247 33.38 403.127 32.58C402.007 31.78 399.887 30.8 396.767 29.64C393.647 28.48 391.107 27.28 389.147 26.04C387.187 24.8 386.207 23.32 386.207 21.6C386.207 19.84 387.187 17.88 389.147 15.72C391.107 13.52 393.007 11.96 394.847 11.04C398.607 11.04 402.167 11.98 405.527 13.86L405.167 14.46C401.807 12.66 398.447 11.76 395.087 11.76L394.247 12.24C392.487 13.36 390.847 14.84 389.327 16.68C387.807 18.48 387.047 20.14 387.047 21.66C387.047 23.14 388.027 24.48 389.987 25.68C391.987 26.88 394.467 28.04 397.427 29.16C400.427 30.28 402.547 31.28 403.787 32.16C405.027 33.04 405.647 34.14 405.647 35.46C405.647 36.22 405.427 36.98 404.987 37.74C405.107 38.18 405.167 38.58 405.167 38.94C405.167 41.06 404.207 43.52 402.287 46.32C400.407 49.08 398.487 50.92 396.527 51.84C387.967 51.84 383.687 49.44 383.687 44.64C383.687 43.08 384.107 41.8 384.947 40.8C385.827 39.76 386.947 39.24 388.307 39.24C389.707 39.24 390.807 39.66 391.607 40.5C392.407 41.3 392.807 42.36 392.807 43.68C392.807 44.16 392.707 44.64 392.507 45.12L391.847 44.88C391.967 44.48 392.027 44.08 392.027 43.68C392.027 42.56 391.687 41.66 391.007 40.98C390.367 40.3 389.467 39.96 388.307 39.96C387.147 39.96 386.227 40.4 385.547 41.28C384.867 42.16 384.527 43.26 384.527 44.58C384.527 45.9 384.847 47.02 385.487 47.94C386.167 48.82 387.127 49.48 388.367 49.92C390.607 50.72 393.247 51.12 396.287 51.12C398.247 50.16 400.067 48.4 401.747 45.84C403.467 43.24 404.327 41.04 404.327 39.24C404.327 37.44 403.347 35.96 401.387 34.8C399.427 33.64 396.947 32.5 393.947 31.38C390.947 30.26 388.867 29.26 387.707 28.38C386.547 27.5 385.767 26.62 385.367 25.74L385.967 25.32C386.567 26.4 387.347 27.28 388.307 27.96C389.267 28.64 391.007 29.46 393.527 30.42C396.047 31.38 398.327 32.38 400.367 33.42C402.447 34.46 403.847 35.6 404.567 36.84C404.727 36.4 404.807 35.94 404.807 35.46Z"/>
<path d="M432.954 12.3C434.274 12.66 435.354 13.38 436.194 14.46C437.034 15.5 437.454 16.62 437.454 17.82C437.454 18.98 437.234 19.8 436.794 20.28L436.314 19.92C436.554 19.36 436.674 18.7 436.674 17.94C436.674 16.26 435.994 14.92 434.634 13.92C433.314 12.88 431.614 12.36 429.534 12.36C429.294 12.36 429.054 12.36 428.814 12.36L421.254 12.78V30.6H428.694C431.574 30.6 433.014 29.78 433.014 28.14C433.014 27.7 432.914 27.28 432.714 26.88L433.314 26.58C433.634 26.98 433.794 27.54 433.794 28.26C433.794 28.94 433.514 29.54 432.954 30.06C432.434 30.58 431.794 30.9 431.034 31.02C432.594 31.54 433.534 33.02 433.854 35.46L433.134 35.64C432.854 34.08 432.394 32.98 431.754 32.34C431.114 31.66 430.074 31.32 428.634 31.32H421.254V48.48C424.614 50.2 427.674 51.06 430.434 51.06C433.234 51.06 435.174 50.62 436.254 49.74C437.374 48.86 437.934 47.3 437.934 45.06C437.934 44.34 437.834 43.68 437.634 43.08L438.294 42.78C438.574 43.46 438.714 44.22 438.714 45.06C438.714 47.46 438.094 49.18 436.854 50.22C435.614 51.26 433.714 51.78 431.154 51.78C427.434 51.78 423.854 50.84 420.414 48.96V12.12L429.234 11.64C433.394 11.48 436.994 10.68 440.034 9.24001C441.634 8.48001 442.894 7.44001 443.814 6.12001C444.734 4.76001 445.194 3.16001 445.194 1.32001L445.914 1.38001C445.914 4.58001 444.714 7.04001 442.314 8.76001C439.914 10.44 436.794 11.52 432.954 12C432.674 12 432.214 11.98 431.574 11.94V12.06C432.134 12.14 432.594 12.22 432.954 12.3ZM418.854 14.7V44.58C418.854 46.98 418.414 48.78 417.534 49.98C416.654 51.14 415.154 51.72 413.034 51.72C411.954 51.72 411.054 51.6 410.334 51.36L410.454 50.76C411.334 50.96 412.134 51.06 412.854 51.06C414.854 51.06 416.214 50.54 416.934 49.5C417.654 48.46 418.014 46.82 418.014 44.58V14.7C418.014 12.46 417.654 10.82 416.934 9.78001C416.214 8.74001 414.854 8.22001 412.854 8.22001C412.134 8.22001 411.334 8.32001 410.454 8.52001L410.334 7.92001C411.054 7.68001 411.954 7.56001 413.034 7.56001C415.154 7.56001 416.654 8.16001 417.534 9.36001C418.414 10.52 418.854 12.3 418.854 14.7Z"/>
</mask>
<path d="M34.6563 35.82L22.0563 35.76L19.3563 45.9C18.7563 48.18 18.1763 50.06 17.6163 51.54C17.0563 53.02 16.3163 54.52 15.3963 56.04C13.4763 59.08 10.6363 60.6 6.87626 60.6V59.88C9.87626 59.88 12.2163 58.86 13.8963 56.82C15.5763 54.82 16.9163 52.06 17.9163 48.54L18.5163 47.28L18.3963 47.22C17.0363 50.26 14.8763 51.78 11.9163 51.78C9.95626 51.78 8.33626 51.12 7.05626 49.8C5.77626 48.48 5.13626 46.82 5.13626 44.82C5.13626 38.3 10.5763 35.04 21.4563 35.04L27.4563 12.36L25.5963 12.3C25.4363 12.3 25.2763 12.3 25.1163 12.3C22.9163 12.3 21.1363 12.82 19.7763 13.86C18.4163 14.86 17.7363 16.2 17.7363 17.88C17.7363 18.68 17.8563 19.34 18.0963 19.86L17.6163 20.22C17.1763 19.74 16.9563 18.92 16.9563 17.76C16.9563 16.56 17.3763 15.44 18.2163 14.4C19.0563 13.32 20.1363 12.6 21.4563 12.24C21.8163 12.16 22.2763 12.08 22.8363 12V11.88L21.4563 11.94C17.6163 11.46 14.4963 10.38 12.0963 8.70001C9.69626 6.98001 8.49626 4.52001 8.49626 1.32001L9.21626 1.26001C9.21626 3.10001 9.67626 4.70001 10.5963 6.06001C11.5163 7.38001 12.7763 8.42001 14.3763 9.18001C17.4163 10.62 21.0163 11.42 25.1763 11.58L35.4963 12.06V44.58C35.4963 46.98 35.0563 48.78 34.1763 49.98C33.2963 51.14 31.7963 51.72 29.6763 51.72C28.5963 51.72 27.6963 51.6 26.9763 51.36L27.0963 50.76C27.9763 50.96 28.7763 51.06 29.4963 51.06C31.4963 51.06 32.8563 50.54 33.5763 49.5C34.2963 48.46 34.6563 46.82 34.6563 44.58V35.82ZM25.1163 35.04L34.6563 35.1V12.72L28.2363 12.42L22.2363 35.04H25.1163ZM5.97626 44.82C5.97626 46.58 6.53626 48.06 7.65626 49.26C8.77626 50.46 10.1963 51.06 11.9163 51.06C14.6763 51.06 16.7163 49.6 18.0363 46.68C18.7563 45.04 19.3763 43.12 19.8963 40.92L21.2763 35.76C11.0763 35.84 5.97626 38.86 5.97626 44.82ZM37.0563 44.58V14.7C37.0563 12.3 37.4963 10.52 38.3763 9.36001C39.2563 8.16001 40.7563 7.56001 42.8763 7.56001C43.9563 7.56001 44.8563 7.68001 45.5763 7.92001L45.4563 8.52001C44.5763 8.32001 43.7763 8.22001 43.0563 8.22001C41.0563 8.22001 39.6963 8.74001 38.9763 9.78001C38.2563 10.82 37.8963 12.46 37.8963 14.7V44.58C37.8963 46.82 38.2563 48.46 38.9763 49.5C39.6963 50.54 41.0563 51.06 43.0563 51.06C43.7763 51.06 44.5763 50.96 45.4563 50.76L45.5763 51.36C44.8563 51.6 43.9563 51.72 42.8763 51.72C40.7563 51.72 39.2563 51.14 38.3763 49.98C37.4963 48.78 37.0563 46.98 37.0563 44.58Z" fill="#A93338"/>
<path d="M76.3427 18.36C76.3427 16.12 75.9827 14.48 75.2627 13.44C74.5427 12.4 73.1827 11.88 71.1827 11.88C70.4627 11.88 69.6627 11.98 68.7827 12.18L68.6627 11.58C69.3827 11.34 70.2827 11.22 71.3627 11.22C73.4827 11.22 74.9827 11.82 75.8627 13.02C76.7427 14.18 77.1827 15.96 77.1827 18.36V47.52C74.3427 49.76 71.3627 51.22 68.2427 51.9C62.9227 51.86 59.3227 50.64 57.4427 48.24C55.6027 45.84 54.6827 41.76 54.6827 36C54.6827 32.76 54.8027 28.94 55.0427 24.54C55.2827 20.1 55.4027 17.78 55.4027 17.58C55.4027 15.74 55.0427 14.34 54.3227 13.38C53.6427 12.38 52.3227 11.88 50.3627 11.88C49.6427 11.88 48.8427 11.98 47.9627 12.18L47.8427 11.58C48.5627 11.34 49.4627 11.22 50.5427 11.22C53.6227 11.22 55.4227 12.54 55.9427 15.18C56.4227 12.54 58.2227 11.22 61.3427 11.22C62.4227 11.22 63.3227 11.34 64.0427 11.58L63.9227 12.18C63.0427 11.98 62.2427 11.88 61.5227 11.88C59.5627 11.88 58.2027 12.38 57.4427 13.38C56.7227 14.34 56.3227 16 56.2427 18.36C55.7627 29.72 55.5227 35.6 55.5227 36C55.5227 41.44 56.3627 45.3 58.0427 47.58C59.7627 49.86 63.1227 51.06 68.1227 51.18C71.3227 50.38 74.0627 49.02 76.3427 47.1V18.36ZM79.5827 18.36V44.58C79.5827 46.82 79.9427 48.46 80.6627 49.5C81.3827 50.54 82.7427 51.06 84.7427 51.06C85.4627 51.06 86.2627 50.96 87.1427 50.76L87.2627 51.36C86.5427 51.6 85.6427 51.72 84.5627 51.72C82.4427 51.72 80.9427 51.14 80.0627 49.98C79.1827 48.78 78.7427 46.98 78.7427 44.58V18.36C78.7427 15.96 79.1827 14.18 80.0627 13.02C80.9427 11.82 82.4427 11.22 84.5627 11.22C85.6427 11.22 86.5427 11.34 87.2627 11.58L87.1427 12.18C86.2627 11.98 85.4627 11.88 84.7427 11.88C82.7427 11.88 81.3827 12.4 80.6627 13.44C79.9427 14.48 79.5827 16.12 79.5827 18.36Z" fill="#A93338"/>
<path d="M89.6242 33.6C89.6242 29.16 90.8042 24.74 93.1642 20.34C95.5642 15.94 98.7442 12.84 102.704 11.04H102.824V31.44C103.504 31.92 103.984 32.52 104.264 33.24L104.624 34.56L104.744 34.5L104.444 33.18L104.384 11.04H105.044C109.564 11.04 112.464 11.54 113.744 12.54C115.144 13.58 115.844 15.04 115.844 16.92C115.844 18.76 115.404 20.2 114.524 21.24C113.684 22.24 112.564 22.74 111.164 22.74C109.804 22.74 108.724 22.34 107.924 21.54C107.124 20.7 106.724 19.62 106.724 18.3C106.724 17.82 106.824 17.34 107.024 16.86L107.684 17.1C107.564 17.54 107.504 17.94 107.504 18.3C107.504 19.42 107.824 20.32 108.464 21C109.144 21.68 110.064 22.02 111.224 22.02C112.384 22.02 113.304 21.58 113.984 20.7C114.664 19.82 115.004 18.8 115.004 17.64C115.004 16.44 114.824 15.48 114.464 14.76C114.104 14 113.664 13.44 113.144 13.08C112.664 12.68 111.944 12.38 110.984 12.18C109.624 11.9 107.704 11.76 105.224 11.76V51C109.224 50.28 112.524 48.8 115.124 46.56L115.724 47.16C112.684 49.64 108.984 51.2 104.624 51.84C99.3842 51.44 95.5642 49.7 93.1642 46.62C90.8042 43.54 89.6242 39.2 89.6242 33.6ZM104.384 36.78C104.384 33.1 102.804 31.26 99.6442 31.26C98.7242 31.26 97.9242 31.44 97.2442 31.8L96.9442 31.32C97.7442 30.84 98.6242 30.6 99.5842 30.6C100.584 30.6 101.384 30.74 101.984 31.02V12.24C98.4642 14.12 95.6642 17.12 93.5842 21.24C91.5042 25.32 90.4642 29.44 90.4642 33.6C90.4642 44.4 95.1042 50.22 104.384 51.06V36.78Z" fill="#A93338"/>
<path d="M134.218 44.52V12C134.618 11.96 135.338 11.92 136.378 11.88C137.418 11.84 138.898 11.78 140.818 11.7C142.778 11.62 144.638 11.4 146.398 11.04C148.158 10.64 149.838 10.06 151.438 9.30001C153.038 8.54001 154.298 7.50001 155.218 6.18001C156.138 4.82001 156.598 3.22001 156.598 1.38001L157.318 1.44001C157.318 4.64001 156.118 7.10001 153.718 8.82001C151.318 10.5 148.198 11.58 144.358 12.06C144.078 12.06 143.618 12.04 142.978 12V12.12C143.538 12.2 143.998 12.28 144.358 12.36C145.678 12.72 146.758 13.44 147.598 14.52C148.438 15.56 148.858 16.68 148.858 17.88C148.858 19.04 148.638 19.86 148.198 20.34L147.718 19.98C147.958 19.46 148.078 18.8 148.078 18C148.078 16.32 147.398 14.98 146.038 13.98C144.718 12.94 143.018 12.42 140.938 12.42C140.698 12.42 140.458 12.42 140.218 12.42L135.058 12.66V44.52C135.058 46.76 135.418 48.4 136.138 49.44C136.858 50.48 138.218 51 140.218 51C140.938 51 141.738 50.9 142.618 50.7L142.738 51.3C142.018 51.54 141.118 51.66 140.038 51.66C137.918 51.66 136.418 51.08 135.538 49.92C134.658 48.72 134.218 46.92 134.218 44.52ZM131.818 12.66L124.558 12.3C119.918 12.3 117.598 14.1 117.598 17.7C117.598 19.02 117.938 20.12 118.618 21C119.298 21.88 120.218 22.32 121.378 22.32C122.538 22.32 123.438 21.98 124.078 21.3C124.758 20.62 125.098 19.72 125.098 18.6C125.098 18.2 125.038 17.8 124.918 17.4L125.578 17.16C125.778 17.64 125.878 18.12 125.878 18.6C125.878 19.92 125.478 21 124.678 21.84C123.878 22.64 122.778 23.04 121.378 23.04C120.018 23.04 118.898 22.54 118.018 21.54C117.178 20.5 116.758 19.2 116.758 17.64C116.758 13.6 119.438 11.58 124.798 11.58C126.958 11.58 129.578 11.72 132.658 12V44.52C132.658 46.92 132.218 48.72 131.338 49.92C130.458 51.08 128.958 51.66 126.838 51.66C125.758 51.66 124.858 51.54 124.138 51.3L124.258 50.7C125.138 50.9 125.938 51 126.658 51C128.658 51 130.018 50.48 130.738 49.44C131.458 48.4 131.818 46.76 131.818 44.52V12.66Z" fill="#A93338"/>
<path d="M158.492 44.58V12.72L156.632 12.6C156.472 12.6 156.312 12.6 156.152 12.6C154.232 12.6 152.592 13.06 151.232 13.98C149.872 14.9 149.192 16.3 149.192 18.18C149.192 18.94 149.312 19.6 149.552 20.16L149.072 20.52C148.632 20.04 148.412 19.22 148.412 18.06C148.412 16.86 148.832 15.72 149.672 14.64C150.512 13.56 151.592 12.84 152.912 12.48C152.952 12.48 153.412 12.42 154.292 12.3V12.18L152.912 12.24C149.072 11.76 145.952 10.68 143.552 9.00001C141.152 7.28001 139.952 4.82001 139.952 1.62001L140.672 1.56001C140.672 3.40001 141.132 5.00001 142.052 6.36001C142.972 7.68001 144.232 8.72001 145.832 9.48001C148.792 10.84 152.392 11.64 156.632 11.88L159.332 12.06V44.58C159.332 46.98 158.892 48.78 158.012 49.98C157.132 51.14 155.632 51.72 153.512 51.72C152.432 51.72 151.532 51.6 150.812 51.36L150.932 50.76C151.812 50.96 152.612 51.06 153.332 51.06C155.332 51.06 156.692 50.54 157.412 49.5C158.132 48.46 158.492 46.82 158.492 44.58ZM160.892 44.58V14.7C160.892 12.3 161.332 10.52 162.212 9.36001C163.092 8.16001 164.592 7.56001 166.712 7.56001C167.792 7.56001 168.692 7.68001 169.412 7.92001L169.292 8.52001C168.412 8.32001 167.612 8.22001 166.892 8.22001C164.892 8.22001 163.532 8.74001 162.812 9.78001C162.092 10.82 161.732 12.46 161.732 14.7V44.58C161.732 46.82 162.092 48.46 162.812 49.5C163.532 50.54 164.892 51.06 166.892 51.06C167.612 51.06 168.412 50.96 169.292 50.76L169.412 51.36C168.692 51.6 167.792 51.72 166.712 51.72C164.592 51.72 163.092 51.14 162.212 49.98C161.332 48.78 160.892 46.98 160.892 44.58Z" fill="#A93338"/>
<path d="M174.115 31.38C174.115 24.26 176.395 17.92 180.955 12.36L181.555 12.78C177.155 18.1 174.955 24.3 174.955 31.38C174.955 41.18 177.855 47.36 183.655 49.92V26.4C181.855 24.48 180.955 22.2 180.955 19.56C180.955 16.92 181.735 14.84 183.295 13.32C184.895 11.8 186.895 11.04 189.295 11.04C191.735 11.04 193.835 11.58 195.595 12.66C197.355 13.7 198.735 15.16 199.735 17.04C201.575 20.68 202.495 25.18 202.495 30.54C202.495 38.74 200.255 45.66 195.775 51.3C193.815 51.7 192.015 51.9 190.375 51.9C188.775 51.9 187.335 51.76 186.055 51.48V28.26C185.535 28.02 185.015 27.66 184.495 27.18V51.06C177.575 48.78 174.115 42.22 174.115 31.38ZM190.135 29.28C189.055 29.28 187.975 29.08 186.895 28.68V50.94C188.335 51.1 189.695 51.18 190.975 51.18C192.255 51.18 193.695 51.02 195.295 50.7C197.295 48.06 198.855 44.98 199.975 41.46C201.095 37.94 201.655 34.62 201.655 31.5C201.655 28.34 201.435 25.7 200.995 23.58C200.595 21.46 199.935 19.48 199.015 17.64C198.135 15.8 196.875 14.36 195.235 13.32C193.595 12.28 191.635 11.76 189.355 11.76C187.115 11.76 185.295 12.44 183.895 13.8C182.495 15.16 181.795 17.04 181.795 19.44C181.795 21.84 182.575 23.96 184.135 25.8C185.735 27.64 187.735 28.56 190.135 28.56C191.815 28.56 193.155 28.06 194.155 27.06C195.195 26.06 195.715 24.72 195.715 23.04H196.555C196.555 24.88 195.955 26.38 194.755 27.54C193.555 28.7 192.015 29.28 190.135 29.28Z" fill="#A93338"/>
<path d="M216.91 14.94C215.23 12.86 213.37 11.82 211.33 11.82C210.33 11.82 209.39 11.92 208.51 12.12L208.39 11.52C209.11 11.28 210.01 11.16 211.09 11.16C213.53 11.16 215.65 12.24 217.45 14.4L234.67 35.58C237.31 38.86 239.05 41.82 239.89 44.46V18.3C239.89 15.98 239.51 14.32 238.75 13.32C238.03 12.32 236.69 11.82 234.73 11.82C234.01 11.82 233.21 11.92 232.33 12.12L232.21 11.52C232.93 11.28 233.83 11.16 234.91 11.16C238.03 11.16 239.83 12.48 240.31 15.12C240.83 12.48 242.63 11.16 245.71 11.16C246.79 11.16 247.69 11.28 248.41 11.52L248.29 12.12C247.41 11.92 246.61 11.82 245.89 11.82C243.89 11.82 242.53 12.34 241.81 13.38C241.09 14.42 240.73 16.06 240.73 18.3V50.94L239.71 51.12C238.31 46.96 236.25 43.2 233.53 39.84L217.21 19.62L216.73 18.42H216.61C216.81 19.02 216.91 19.48 216.91 19.8V44.52C216.91 46.84 217.27 48.5 217.99 49.5C218.75 50.5 220.11 51 222.07 51C222.79 51 223.59 50.9 224.47 50.7L224.59 51.3C223.87 51.54 222.97 51.66 221.89 51.66C218.77 51.66 216.97 50.34 216.49 47.7C215.97 50.34 214.17 51.66 211.09 51.66C210.01 51.66 209.11 51.54 208.39 51.3L208.51 50.7C209.39 50.9 210.19 51 210.91 51C212.91 51 214.27 50.48 214.99 49.44C215.71 48.4 216.07 46.76 216.07 44.52V17.16L216.25 17.1L234.07 39.24C236.75 42.52 238.69 45.94 239.89 49.5V47.28C239.61 44.28 237.67 40.56 234.07 36.12L216.91 14.94Z" fill="#A93338"/>
<path d="M269.761 18.36V30.6H290.341V18.36C290.341 16.12 289.981 14.48 289.261 13.44C288.541 12.4 287.181 11.88 285.181 11.88C284.461 11.88 283.661 11.98 282.781 12.18L282.661 11.58C283.381 11.34 284.281 11.22 285.361 11.22C287.481 11.22 288.981 11.82 289.861 13.02C290.741 14.18 291.181 15.96 291.181 18.36V44.58C291.181 46.98 290.741 48.78 289.861 49.98C288.981 51.14 287.481 51.72 285.361 51.72C284.281 51.72 283.381 51.6 282.661 51.36L282.781 50.76C283.661 50.96 284.461 51.06 285.181 51.06C287.181 51.06 288.541 50.54 289.261 49.5C289.981 48.46 290.341 46.82 290.341 44.58V31.32H269.761V44.58C269.761 46.9 270.121 48.56 270.841 49.56C271.601 50.56 272.961 51.06 274.921 51.06C275.641 51.06 276.441 50.96 277.321 50.76L277.441 51.36C276.721 51.6 275.821 51.72 274.741 51.72C271.621 51.72 269.821 50.4 269.341 47.76C268.821 50.4 267.021 51.72 263.941 51.72C262.861 51.72 261.961 51.6 261.241 51.36L261.361 50.76C262.241 50.96 263.041 51.06 263.761 51.06C265.761 51.06 267.121 50.54 267.841 49.5C268.561 48.46 268.921 46.82 268.921 44.58V18.36C268.921 16.12 268.561 14.48 267.841 13.44C267.121 12.4 265.761 11.88 263.761 11.88C263.041 11.88 262.241 11.98 261.361 12.18L261.241 11.58C261.961 11.34 262.861 11.22 263.941 11.22C267.021 11.22 268.821 12.54 269.341 15.18C269.821 12.54 271.621 11.22 274.741 11.22C275.821 11.22 276.721 11.34 277.441 11.58L277.321 12.18C276.441 11.98 275.641 11.88 274.921 11.88C272.961 11.88 271.601 12.38 270.841 13.38C270.121 14.38 269.761 16.04 269.761 18.36ZM293.581 18.36V44.58C293.581 46.82 293.941 48.46 294.661 49.5C295.381 50.54 296.741 51.06 298.741 51.06C299.461 51.06 300.261 50.96 301.141 50.76L301.261 51.36C300.541 51.6 299.641 51.72 298.561 51.72C296.441 51.72 294.941 51.14 294.061 49.98C293.181 48.78 292.741 46.98 292.741 44.58V18.36C292.741 15.96 293.181 14.18 294.061 13.02C294.941 11.82 296.441 11.22 298.561 11.22C299.641 11.22 300.541 11.34 301.261 11.58L301.141 12.18C300.261 11.98 299.461 11.88 298.741 11.88C296.741 11.88 295.381 12.4 294.661 13.44C293.941 14.48 293.581 16.12 293.581 18.36Z" fill="#A93338"/>
<path d="M305.951 31.38C305.951 24.26 308.231 17.92 312.791 12.36L313.391 12.78C308.991 18.1 306.791 24.3 306.791 31.38C306.791 41.18 309.691 47.36 315.491 49.92V26.4C313.691 24.48 312.791 22.2 312.791 19.56C312.791 16.92 313.571 14.84 315.131 13.32C316.731 11.8 318.731 11.04 321.131 11.04C323.571 11.04 325.671 11.58 327.431 12.66C329.191 13.7 330.571 15.16 331.571 17.04C333.411 20.68 334.331 25.18 334.331 30.54C334.331 38.74 332.091 45.66 327.611 51.3C325.651 51.7 323.851 51.9 322.211 51.9C320.611 51.9 319.171 51.76 317.891 51.48V28.26C317.371 28.02 316.851 27.66 316.331 27.18V51.06C309.411 48.78 305.951 42.22 305.951 31.38ZM321.971 29.28C320.891 29.28 319.811 29.08 318.731 28.68V50.94C320.171 51.1 321.531 51.18 322.811 51.18C324.091 51.18 325.531 51.02 327.131 50.7C329.131 48.06 330.691 44.98 331.811 41.46C332.931 37.94 333.491 34.62 333.491 31.5C333.491 28.34 333.271 25.7 332.831 23.58C332.431 21.46 331.771 19.48 330.851 17.64C329.971 15.8 328.711 14.36 327.071 13.32C325.431 12.28 323.471 11.76 321.191 11.76C318.951 11.76 317.131 12.44 315.731 13.8C314.331 15.16 313.631 17.04 313.631 19.44C313.631 21.84 314.411 23.96 315.971 25.8C317.571 27.64 319.571 28.56 321.971 28.56C323.651 28.56 324.991 28.06 325.991 27.06C327.031 26.06 327.551 24.72 327.551 23.04H328.391C328.391 24.88 327.791 26.38 326.591 27.54C325.391 28.7 323.851 29.28 321.971 29.28Z" fill="#A93338"/>
<path d="M368.725 18.36C368.725 16.12 368.365 14.48 367.645 13.44C366.925 12.4 365.565 11.88 363.565 11.88C362.845 11.88 362.045 11.98 361.165 12.18L361.045 11.58C361.765 11.34 362.665 11.22 363.745 11.22C365.865 11.22 367.365 11.82 368.245 13.02C369.125 14.18 369.565 15.96 369.565 18.36V47.52C366.725 49.76 363.745 51.22 360.625 51.9C355.305 51.86 351.705 50.64 349.825 48.24C347.985 45.84 347.065 41.76 347.065 36C347.065 32.76 347.185 28.94 347.425 24.54C347.665 20.1 347.785 17.78 347.785 17.58C347.785 15.74 347.425 14.34 346.705 13.38C346.025 12.38 344.705 11.88 342.745 11.88C342.025 11.88 341.225 11.98 340.345 12.18L340.225 11.58C340.945 11.34 341.845 11.22 342.925 11.22C346.005 11.22 347.805 12.54 348.325 15.18C348.805 12.54 350.605 11.22 353.725 11.22C354.805 11.22 355.705 11.34 356.425 11.58L356.305 12.18C355.425 11.98 354.625 11.88 353.905 11.88C351.945 11.88 350.585 12.38 349.825 13.38C349.105 14.34 348.705 16 348.625 18.36C348.145 29.72 347.905 35.6 347.905 36C347.905 41.44 348.745 45.3 350.425 47.58C352.145 49.86 355.505 51.06 360.505 51.18C363.705 50.38 366.445 49.02 368.725 47.1V18.36ZM371.965 18.36V44.58C371.965 46.82 372.325 48.46 373.045 49.5C373.765 50.54 375.125 51.06 377.125 51.06C377.845 51.06 378.645 50.96 379.525 50.76L379.645 51.36C378.925 51.6 378.025 51.72 376.945 51.72C374.825 51.72 373.325 51.14 372.445 49.98C371.565 48.78 371.125 46.98 371.125 44.58V18.36C371.125 15.96 371.565 14.18 372.445 13.02C373.325 11.82 374.825 11.22 376.945 11.22C378.025 11.22 378.925 11.34 379.645 11.58L379.525 12.18C378.645 11.98 377.845 11.88 377.125 11.88C375.125 11.88 373.765 12.4 373.045 13.44C372.325 14.48 371.965 16.12 371.965 18.36Z" fill="#A93338"/>
<path d="M404.807 35.46C404.807 34.34 404.247 33.38 403.127 32.58C402.007 31.78 399.887 30.8 396.767 29.64C393.647 28.48 391.107 27.28 389.147 26.04C387.187 24.8 386.207 23.32 386.207 21.6C386.207 19.84 387.187 17.88 389.147 15.72C391.107 13.52 393.007 11.96 394.847 11.04C398.607 11.04 402.167 11.98 405.527 13.86L405.167 14.46C401.807 12.66 398.447 11.76 395.087 11.76L394.247 12.24C392.487 13.36 390.847 14.84 389.327 16.68C387.807 18.48 387.047 20.14 387.047 21.66C387.047 23.14 388.027 24.48 389.987 25.68C391.987 26.88 394.467 28.04 397.427 29.16C400.427 30.28 402.547 31.28 403.787 32.16C405.027 33.04 405.647 34.14 405.647 35.46C405.647 36.22 405.427 36.98 404.987 37.74C405.107 38.18 405.167 38.58 405.167 38.94C405.167 41.06 404.207 43.52 402.287 46.32C400.407 49.08 398.487 50.92 396.527 51.84C387.967 51.84 383.687 49.44 383.687 44.64C383.687 43.08 384.107 41.8 384.947 40.8C385.827 39.76 386.947 39.24 388.307 39.24C389.707 39.24 390.807 39.66 391.607 40.5C392.407 41.3 392.807 42.36 392.807 43.68C392.807 44.16 392.707 44.64 392.507 45.12L391.847 44.88C391.967 44.48 392.027 44.08 392.027 43.68C392.027 42.56 391.687 41.66 391.007 40.98C390.367 40.3 389.467 39.96 388.307 39.96C387.147 39.96 386.227 40.4 385.547 41.28C384.867 42.16 384.527 43.26 384.527 44.58C384.527 45.9 384.847 47.02 385.487 47.94C386.167 48.82 387.127 49.48 388.367 49.92C390.607 50.72 393.247 51.12 396.287 51.12C398.247 50.16 400.067 48.4 401.747 45.84C403.467 43.24 404.327 41.04 404.327 39.24C404.327 37.44 403.347 35.96 401.387 34.8C399.427 33.64 396.947 32.5 393.947 31.38C390.947 30.26 388.867 29.26 387.707 28.38C386.547 27.5 385.767 26.62 385.367 25.74L385.967 25.32C386.567 26.4 387.347 27.28 388.307 27.96C389.267 28.64 391.007 29.46 393.527 30.42C396.047 31.38 398.327 32.38 400.367 33.42C402.447 34.46 403.847 35.6 404.567 36.84C404.727 36.4 404.807 35.94 404.807 35.46Z" fill="#A93338"/>
<path d="M432.954 12.3C434.274 12.66 435.354 13.38 436.194 14.46C437.034 15.5 437.454 16.62 437.454 17.82C437.454 18.98 437.234 19.8 436.794 20.28L436.314 19.92C436.554 19.36 436.674 18.7 436.674 17.94C436.674 16.26 435.994 14.92 434.634 13.92C433.314 12.88 431.614 12.36 429.534 12.36C429.294 12.36 429.054 12.36 428.814 12.36L421.254 12.78V30.6H428.694C431.574 30.6 433.014 29.78 433.014 28.14C433.014 27.7 432.914 27.28 432.714 26.88L433.314 26.58C433.634 26.98 433.794 27.54 433.794 28.26C433.794 28.94 433.514 29.54 432.954 30.06C432.434 30.58 431.794 30.9 431.034 31.02C432.594 31.54 433.534 33.02 433.854 35.46L433.134 35.64C432.854 34.08 432.394 32.98 431.754 32.34C431.114 31.66 430.074 31.32 428.634 31.32H421.254V48.48C424.614 50.2 427.674 51.06 430.434 51.06C433.234 51.06 435.174 50.62 436.254 49.74C437.374 48.86 437.934 47.3 437.934 45.06C437.934 44.34 437.834 43.68 437.634 43.08L438.294 42.78C438.574 43.46 438.714 44.22 438.714 45.06C438.714 47.46 438.094 49.18 436.854 50.22C435.614 51.26 433.714 51.78 431.154 51.78C427.434 51.78 423.854 50.84 420.414 48.96V12.12L429.234 11.64C433.394 11.48 436.994 10.68 440.034 9.24001C441.634 8.48001 442.894 7.44001 443.814 6.12001C444.734 4.76001 445.194 3.16001 445.194 1.32001L445.914 1.38001C445.914 4.58001 444.714 7.04001 442.314 8.76001C439.914 10.44 436.794 11.52 432.954 12C432.674 12 432.214 11.98 431.574 11.94V12.06C432.134 12.14 432.594 12.22 432.954 12.3ZM418.854 14.7V44.58C418.854 46.98 418.414 48.78 417.534 49.98C416.654 51.14 415.154 51.72 413.034 51.72C411.954 51.72 411.054 51.6 410.334 51.36L410.454 50.76C411.334 50.96 412.134 51.06 412.854 51.06C414.854 51.06 416.214 50.54 416.934 49.5C417.654 48.46 418.014 46.82 418.014 44.58V14.7C418.014 12.46 417.654 10.82 416.934 9.78001C416.214 8.74001 414.854 8.22001 412.854 8.22001C412.134 8.22001 411.334 8.32001 410.454 8.52001L410.334 7.92001C411.054 7.68001 411.954 7.56001 413.034 7.56001C415.154 7.56001 416.654 8.16001 417.534 9.36001C418.414 10.52 418.854 12.3 418.854 14.7Z" fill="#A93338"/>
<path d="M34.6563 35.82L22.0563 35.76L19.3563 45.9C18.7563 48.18 18.1763 50.06 17.6163 51.54C17.0563 53.02 16.3163 54.52 15.3963 56.04C13.4763 59.08 10.6363 60.6 6.87626 60.6V59.88C9.87626 59.88 12.2163 58.86 13.8963 56.82C15.5763 54.82 16.9163 52.06 17.9163 48.54L18.5163 47.28L18.3963 47.22C17.0363 50.26 14.8763 51.78 11.9163 51.78C9.95626 51.78 8.33626 51.12 7.05626 49.8C5.77626 48.48 5.13626 46.82 5.13626 44.82C5.13626 38.3 10.5763 35.04 21.4563 35.04L27.4563 12.36L25.5963 12.3C25.4363 12.3 25.2763 12.3 25.1163 12.3C22.9163 12.3 21.1363 12.82 19.7763 13.86C18.4163 14.86 17.7363 16.2 17.7363 17.88C17.7363 18.68 17.8563 19.34 18.0963 19.86L17.6163 20.22C17.1763 19.74 16.9563 18.92 16.9563 17.76C16.9563 16.56 17.3763 15.44 18.2163 14.4C19.0563 13.32 20.1363 12.6 21.4563 12.24C21.8163 12.16 22.2763 12.08 22.8363 12V11.88L21.4563 11.94C17.6163 11.46 14.4963 10.38 12.0963 8.70001C9.69626 6.98001 8.49626 4.52001 8.49626 1.32001L9.21626 1.26001C9.21626 3.10001 9.67626 4.70001 10.5963 6.06001C11.5163 7.38001 12.7763 8.42001 14.3763 9.18001C17.4163 10.62 21.0163 11.42 25.1763 11.58L35.4963 12.06V44.58C35.4963 46.98 35.0563 48.78 34.1763 49.98C33.2963 51.14 31.7963 51.72 29.6763 51.72C28.5963 51.72 27.6963 51.6 26.9763 51.36L27.0963 50.76C27.9763 50.96 28.7763 51.06 29.4963 51.06C31.4963 51.06 32.8563 50.54 33.5763 49.5C34.2963 48.46 34.6563 46.82 34.6563 44.58V35.82ZM25.1163 35.04L34.6563 35.1V12.72L28.2363 12.42L22.2363 35.04H25.1163ZM5.97626 44.82C5.97626 46.58 6.53626 48.06 7.65626 49.26C8.77626 50.46 10.1963 51.06 11.9163 51.06C14.6763 51.06 16.7163 49.6 18.0363 46.68C18.7563 45.04 19.3763 43.12 19.8963 40.92L21.2763 35.76C11.0763 35.84 5.97626 38.86 5.97626 44.82ZM37.0563 44.58V14.7C37.0563 12.3 37.4963 10.52 38.3763 9.36001C39.2563 8.16001 40.7563 7.56001 42.8763 7.56001C43.9563 7.56001 44.8563 7.68001 45.5763 7.92001L45.4563 8.52001C44.5763 8.32001 43.7763 8.22001 43.0563 8.22001C41.0563 8.22001 39.6963 8.74001 38.9763 9.78001C38.2563 10.82 37.8963 12.46 37.8963 14.7V44.58C37.8963 46.82 38.2563 48.46 38.9763 49.5C39.6963 50.54 41.0563 51.06 43.0563 51.06C43.7763 51.06 44.5763 50.96 45.4563 50.76L45.5763 51.36C44.8563 51.6 43.9563 51.72 42.8763 51.72C40.7563 51.72 39.2563 51.14 38.3763 49.98C37.4963 48.78 37.0563 46.98 37.0563 44.58Z" stroke="#A93338" stroke-width="0.6" mask="url(#path-1-outside-1_115_600)"/>
<path d="M76.3427 18.36C76.3427 16.12 75.9827 14.48 75.2627 13.44C74.5427 12.4 73.1827 11.88 71.1827 11.88C70.4627 11.88 69.6627 11.98 68.7827 12.18L68.6627 11.58C69.3827 11.34 70.2827 11.22 71.3627 11.22C73.4827 11.22 74.9827 11.82 75.8627 13.02C76.7427 14.18 77.1827 15.96 77.1827 18.36V47.52C74.3427 49.76 71.3627 51.22 68.2427 51.9C62.9227 51.86 59.3227 50.64 57.4427 48.24C55.6027 45.84 54.6827 41.76 54.6827 36C54.6827 32.76 54.8027 28.94 55.0427 24.54C55.2827 20.1 55.4027 17.78 55.4027 17.58C55.4027 15.74 55.0427 14.34 54.3227 13.38C53.6427 12.38 52.3227 11.88 50.3627 11.88C49.6427 11.88 48.8427 11.98 47.9627 12.18L47.8427 11.58C48.5627 11.34 49.4627 11.22 50.5427 11.22C53.6227 11.22 55.4227 12.54 55.9427 15.18C56.4227 12.54 58.2227 11.22 61.3427 11.22C62.4227 11.22 63.3227 11.34 64.0427 11.58L63.9227 12.18C63.0427 11.98 62.2427 11.88 61.5227 11.88C59.5627 11.88 58.2027 12.38 57.4427 13.38C56.7227 14.34 56.3227 16 56.2427 18.36C55.7627 29.72 55.5227 35.6 55.5227 36C55.5227 41.44 56.3627 45.3 58.0427 47.58C59.7627 49.86 63.1227 51.06 68.1227 51.18C71.3227 50.38 74.0627 49.02 76.3427 47.1V18.36ZM79.5827 18.36V44.58C79.5827 46.82 79.9427 48.46 80.6627 49.5C81.3827 50.54 82.7427 51.06 84.7427 51.06C85.4627 51.06 86.2627 50.96 87.1427 50.76L87.2627 51.36C86.5427 51.6 85.6427 51.72 84.5627 51.72C82.4427 51.72 80.9427 51.14 80.0627 49.98C79.1827 48.78 78.7427 46.98 78.7427 44.58V18.36C78.7427 15.96 79.1827 14.18 80.0627 13.02C80.9427 11.82 82.4427 11.22 84.5627 11.22C85.6427 11.22 86.5427 11.34 87.2627 11.58L87.1427 12.18C86.2627 11.98 85.4627 11.88 84.7427 11.88C82.7427 11.88 81.3827 12.4 80.6627 13.44C79.9427 14.48 79.5827 16.12 79.5827 18.36Z" stroke="#A93338" stroke-width="0.6" mask="url(#path-1-outside-1_115_600)"/>
<path d="M89.6242 33.6C89.6242 29.16 90.8042 24.74 93.1642 20.34C95.5642 15.94 98.7442 12.84 102.704 11.04H102.824V31.44C103.504 31.92 103.984 32.52 104.264 33.24L104.624 34.56L104.744 34.5L104.444 33.18L104.384 11.04H105.044C109.564 11.04 112.464 11.54 113.744 12.54C115.144 13.58 115.844 15.04 115.844 16.92C115.844 18.76 115.404 20.2 114.524 21.24C113.684 22.24 112.564 22.74 111.164 22.74C109.804 22.74 108.724 22.34 107.924 21.54C107.124 20.7 106.724 19.62 106.724 18.3C106.724 17.82 106.824 17.34 107.024 16.86L107.684 17.1C107.564 17.54 107.504 17.94 107.504 18.3C107.504 19.42 107.824 20.32 108.464 21C109.144 21.68 110.064 22.02 111.224 22.02C112.384 22.02 113.304 21.58 113.984 20.7C114.664 19.82 115.004 18.8 115.004 17.64C115.004 16.44 114.824 15.48 114.464 14.76C114.104 14 113.664 13.44 113.144 13.08C112.664 12.68 111.944 12.38 110.984 12.18C109.624 11.9 107.704 11.76 105.224 11.76V51C109.224 50.28 112.524 48.8 115.124 46.56L115.724 47.16C112.684 49.64 108.984 51.2 104.624 51.84C99.3842 51.44 95.5642 49.7 93.1642 46.62C90.8042 43.54 89.6242 39.2 89.6242 33.6ZM104.384 36.78C104.384 33.1 102.804 31.26 99.6442 31.26C98.7242 31.26 97.9242 31.44 97.2442 31.8L96.9442 31.32C97.7442 30.84 98.6242 30.6 99.5842 30.6C100.584 30.6 101.384 30.74 101.984 31.02V12.24C98.4642 14.12 95.6642 17.12 93.5842 21.24C91.5042 25.32 90.4642 29.44 90.4642 33.6C90.4642 44.4 95.1042 50.22 104.384 51.06V36.78Z" stroke="#A93338" stroke-width="0.6" mask="url(#path-1-outside-1_115_600)"/>
<path d="M134.218 44.52V12C134.618 11.96 135.338 11.92 136.378 11.88C137.418 11.84 138.898 11.78 140.818 11.7C142.778 11.62 144.638 11.4 146.398 11.04C148.158 10.64 149.838 10.06 151.438 9.30001C153.038 8.54001 154.298 7.50001 155.218 6.18001C156.138 4.82001 156.598 3.22001 156.598 1.38001L157.318 1.44001C157.318 4.64001 156.118 7.10001 153.718 8.82001C151.318 10.5 148.198 11.58 144.358 12.06C144.078 12.06 143.618 12.04 142.978 12V12.12C143.538 12.2 143.998 12.28 144.358 12.36C145.678 12.72 146.758 13.44 147.598 14.52C148.438 15.56 148.858 16.68 148.858 17.88C148.858 19.04 148.638 19.86 148.198 20.34L147.718 19.98C147.958 19.46 148.078 18.8 148.078 18C148.078 16.32 147.398 14.98 146.038 13.98C144.718 12.94 143.018 12.42 140.938 12.42C140.698 12.42 140.458 12.42 140.218 12.42L135.058 12.66V44.52C135.058 46.76 135.418 48.4 136.138 49.44C136.858 50.48 138.218 51 140.218 51C140.938 51 141.738 50.9 142.618 50.7L142.738 51.3C142.018 51.54 141.118 51.66 140.038 51.66C137.918 51.66 136.418 51.08 135.538 49.92C134.658 48.72 134.218 46.92 134.218 44.52ZM131.818 12.66L124.558 12.3C119.918 12.3 117.598 14.1 117.598 17.7C117.598 19.02 117.938 20.12 118.618 21C119.298 21.88 120.218 22.32 121.378 22.32C122.538 22.32 123.438 21.98 124.078 21.3C124.758 20.62 125.098 19.72 125.098 18.6C125.098 18.2 125.038 17.8 124.918 17.4L125.578 17.16C125.778 17.64 125.878 18.12 125.878 18.6C125.878 19.92 125.478 21 124.678 21.84C123.878 22.64 122.778 23.04 121.378 23.04C120.018 23.04 118.898 22.54 118.018 21.54C117.178 20.5 116.758 19.2 116.758 17.64C116.758 13.6 119.438 11.58 124.798 11.58C126.958 11.58 129.578 11.72 132.658 12V44.52C132.658 46.92 132.218 48.72 131.338 49.92C130.458 51.08 128.958 51.66 126.838 51.66C125.758 51.66 124.858 51.54 124.138 51.3L124.258 50.7C125.138 50.9 125.938 51 126.658 51C128.658 51 130.018 50.48 130.738 49.44C131.458 48.4 131.818 46.76 131.818 44.52V12.66Z" stroke="#A93338" stroke-width="0.6" mask="url(#path-1-outside-1_115_600)"/>
<path d="M158.492 44.58V12.72L156.632 12.6C156.472 12.6 156.312 12.6 156.152 12.6C154.232 12.6 152.592 13.06 151.232 13.98C149.872 14.9 149.192 16.3 149.192 18.18C149.192 18.94 149.312 19.6 149.552 20.16L149.072 20.52C148.632 20.04 148.412 19.22 148.412 18.06C148.412 16.86 148.832 15.72 149.672 14.64C150.512 13.56 151.592 12.84 152.912 12.48C152.952 12.48 153.412 12.42 154.292 12.3V12.18L152.912 12.24C149.072 11.76 145.952 10.68 143.552 9.00001C141.152 7.28001 139.952 4.82001 139.952 1.62001L140.672 1.56001C140.672 3.40001 141.132 5.00001 142.052 6.36001C142.972 7.68001 144.232 8.72001 145.832 9.48001C148.792 10.84 152.392 11.64 156.632 11.88L159.332 12.06V44.58C159.332 46.98 158.892 48.78 158.012 49.98C157.132 51.14 155.632 51.72 153.512 51.72C152.432 51.72 151.532 51.6 150.812 51.36L150.932 50.76C151.812 50.96 152.612 51.06 153.332 51.06C155.332 51.06 156.692 50.54 157.412 49.5C158.132 48.46 158.492 46.82 158.492 44.58ZM160.892 44.58V14.7C160.892 12.3 161.332 10.52 162.212 9.36001C163.092 8.16001 164.592 7.56001 166.712 7.56001C167.792 7.56001 168.692 7.68001 169.412 7.92001L169.292 8.52001C168.412 8.32001 167.612 8.22001 166.892 8.22001C164.892 8.22001 163.532 8.74001 162.812 9.78001C162.092 10.82 161.732 12.46 161.732 14.7V44.58C161.732 46.82 162.092 48.46 162.812 49.5C163.532 50.54 164.892 51.06 166.892 51.06C167.612 51.06 168.412 50.96 169.292 50.76L169.412 51.36C168.692 51.6 167.792 51.72 166.712 51.72C164.592 51.72 163.092 51.14 162.212 49.98C161.332 48.78 160.892 46.98 160.892 44.58Z" stroke="#A93338" stroke-width="0.6" mask="url(#path-1-outside-1_115_600)"/>
<path d="M174.115 31.38C174.115 24.26 176.395 17.92 180.955 12.36L181.555 12.78C177.155 18.1 174.955 24.3 174.955 31.38C174.955 41.18 177.855 47.36 183.655 49.92V26.4C181.855 24.48 180.955 22.2 180.955 19.56C180.955 16.92 181.735 14.84 183.295 13.32C184.895 11.8 186.895 11.04 189.295 11.04C191.735 11.04 193.835 11.58 195.595 12.66C197.355 13.7 198.735 15.16 199.735 17.04C201.575 20.68 202.495 25.18 202.495 30.54C202.495 38.74 200.255 45.66 195.775 51.3C193.815 51.7 192.015 51.9 190.375 51.9C188.775 51.9 187.335 51.76 186.055 51.48V28.26C185.535 28.02 185.015 27.66 184.495 27.18V51.06C177.575 48.78 174.115 42.22 174.115 31.38ZM190.135 29.28C189.055 29.28 187.975 29.08 186.895 28.68V50.94C188.335 51.1 189.695 51.18 190.975 51.18C192.255 51.18 193.695 51.02 195.295 50.7C197.295 48.06 198.855 44.98 199.975 41.46C201.095 37.94 201.655 34.62 201.655 31.5C201.655 28.34 201.435 25.7 200.995 23.58C200.595 21.46 199.935 19.48 199.015 17.64C198.135 15.8 196.875 14.36 195.235 13.32C193.595 12.28 191.635 11.76 189.355 11.76C187.115 11.76 185.295 12.44 183.895 13.8C182.495 15.16 181.795 17.04 181.795 19.44C181.795 21.84 182.575 23.96 184.135 25.8C185.735 27.64 187.735 28.56 190.135 28.56C191.815 28.56 193.155 28.06 194.155 27.06C195.195 26.06 195.715 24.72 195.715 23.04H196.555C196.555 24.88 195.955 26.38 194.755 27.54C193.555 28.7 192.015 29.28 190.135 29.28Z" stroke="#A93338" stroke-width="0.6" mask="url(#path-1-outside-1_115_600)"/>
<path d="M216.91 14.94C215.23 12.86 213.37 11.82 211.33 11.82C210.33 11.82 209.39 11.92 208.51 12.12L208.39 11.52C209.11 11.28 210.01 11.16 211.09 11.16C213.53 11.16 215.65 12.24 217.45 14.4L234.67 35.58C237.31 38.86 239.05 41.82 239.89 44.46V18.3C239.89 15.98 239.51 14.32 238.75 13.32C238.03 12.32 236.69 11.82 234.73 11.82C234.01 11.82 233.21 11.92 232.33 12.12L232.21 11.52C232.93 11.28 233.83 11.16 234.91 11.16C238.03 11.16 239.83 12.48 240.31 15.12C240.83 12.48 242.63 11.16 245.71 11.16C246.79 11.16 247.69 11.28 248.41 11.52L248.29 12.12C247.41 11.92 246.61 11.82 245.89 11.82C243.89 11.82 242.53 12.34 241.81 13.38C241.09 14.42 240.73 16.06 240.73 18.3V50.94L239.71 51.12C238.31 46.96 236.25 43.2 233.53 39.84L217.21 19.62L216.73 18.42H216.61C216.81 19.02 216.91 19.48 216.91 19.8V44.52C216.91 46.84 217.27 48.5 217.99 49.5C218.75 50.5 220.11 51 222.07 51C222.79 51 223.59 50.9 224.47 50.7L224.59 51.3C223.87 51.54 222.97 51.66 221.89 51.66C218.77 51.66 216.97 50.34 216.49 47.7C215.97 50.34 214.17 51.66 211.09 51.66C210.01 51.66 209.11 51.54 208.39 51.3L208.51 50.7C209.39 50.9 210.19 51 210.91 51C212.91 51 214.27 50.48 214.99 49.44C215.71 48.4 216.07 46.76 216.07 44.52V17.16L216.25 17.1L234.07 39.24C236.75 42.52 238.69 45.94 239.89 49.5V47.28C239.61 44.28 237.67 40.56 234.07 36.12L216.91 14.94Z" stroke="#A93338" stroke-width="0.6" mask="url(#path-1-outside-1_115_600)"/>
<path d="M269.761 18.36V30.6H290.341V18.36C290.341 16.12 289.981 14.48 289.261 13.44C288.541 12.4 287.181 11.88 285.181 11.88C284.461 11.88 283.661 11.98 282.781 12.18L282.661 11.58C283.381 11.34 284.281 11.22 285.361 11.22C287.481 11.22 288.981 11.82 289.861 13.02C290.741 14.18 291.181 15.96 291.181 18.36V44.58C291.181 46.98 290.741 48.78 289.861 49.98C288.981 51.14 287.481 51.72 285.361 51.72C284.281 51.72 283.381 51.6 282.661 51.36L282.781 50.76C283.661 50.96 284.461 51.06 285.181 51.06C287.181 51.06 288.541 50.54 289.261 49.5C289.981 48.46 290.341 46.82 290.341 44.58V31.32H269.761V44.58C269.761 46.9 270.121 48.56 270.841 49.56C271.601 50.56 272.961 51.06 274.921 51.06C275.641 51.06 276.441 50.96 277.321 50.76L277.441 51.36C276.721 51.6 275.821 51.72 274.741 51.72C271.621 51.72 269.821 50.4 269.341 47.76C268.821 50.4 267.021 51.72 263.941 51.72C262.861 51.72 261.961 51.6 261.241 51.36L261.361 50.76C262.241 50.96 263.041 51.06 263.761 51.06C265.761 51.06 267.121 50.54 267.841 49.5C268.561 48.46 268.921 46.82 268.921 44.58V18.36C268.921 16.12 268.561 14.48 267.841 13.44C267.121 12.4 265.761 11.88 263.761 11.88C263.041 11.88 262.241 11.98 261.361 12.18L261.241 11.58C261.961 11.34 262.861 11.22 263.941 11.22C267.021 11.22 268.821 12.54 269.341 15.18C269.821 12.54 271.621 11.22 274.741 11.22C275.821 11.22 276.721 11.34 277.441 11.58L277.321 12.18C276.441 11.98 275.641 11.88 274.921 11.88C272.961 11.88 271.601 12.38 270.841 13.38C270.121 14.38 269.761 16.04 269.761 18.36ZM293.581 18.36V44.58C293.581 46.82 293.941 48.46 294.661 49.5C295.381 50.54 296.741 51.06 298.741 51.06C299.461 51.06 300.261 50.96 301.141 50.76L301.261 51.36C300.541 51.6 299.641 51.72 298.561 51.72C296.441 51.72 294.941 51.14 294.061 49.98C293.181 48.78 292.741 46.98 292.741 44.58V18.36C292.741 15.96 293.181 14.18 294.061 13.02C294.941 11.82 296.441 11.22 298.561 11.22C299.641 11.22 300.541 11.34 301.261 11.58L301.141 12.18C300.261 11.98 299.461 11.88 298.741 11.88C296.741 11.88 295.381 12.4 294.661 13.44C293.941 14.48 293.581 16.12 293.581 18.36Z" stroke="#A93338" stroke-width="0.6" mask="url(#path-1-outside-1_115_600)"/>
<path d="M305.951 31.38C305.951 24.26 308.231 17.92 312.791 12.36L313.391 12.78C308.991 18.1 306.791 24.3 306.791 31.38C306.791 41.18 309.691 47.36 315.491 49.92V26.4C313.691 24.48 312.791 22.2 312.791 19.56C312.791 16.92 313.571 14.84 315.131 13.32C316.731 11.8 318.731 11.04 321.131 11.04C323.571 11.04 325.671 11.58 327.431 12.66C329.191 13.7 330.571 15.16 331.571 17.04C333.411 20.68 334.331 25.18 334.331 30.54C334.331 38.74 332.091 45.66 327.611 51.3C325.651 51.7 323.851 51.9 322.211 51.9C320.611 51.9 319.171 51.76 317.891 51.48V28.26C317.371 28.02 316.851 27.66 316.331 27.18V51.06C309.411 48.78 305.951 42.22 305.951 31.38ZM321.971 29.28C320.891 29.28 319.811 29.08 318.731 28.68V50.94C320.171 51.1 321.531 51.18 322.811 51.18C324.091 51.18 325.531 51.02 327.131 50.7C329.131 48.06 330.691 44.98 331.811 41.46C332.931 37.94 333.491 34.62 333.491 31.5C333.491 28.34 333.271 25.7 332.831 23.58C332.431 21.46 331.771 19.48 330.851 17.64C329.971 15.8 328.711 14.36 327.071 13.32C325.431 12.28 323.471 11.76 321.191 11.76C318.951 11.76 317.131 12.44 315.731 13.8C314.331 15.16 313.631 17.04 313.631 19.44C313.631 21.84 314.411 23.96 315.971 25.8C317.571 27.64 319.571 28.56 321.971 28.56C323.651 28.56 324.991 28.06 325.991 27.06C327.031 26.06 327.551 24.72 327.551 23.04H328.391C328.391 24.88 327.791 26.38 326.591 27.54C325.391 28.7 323.851 29.28 321.971 29.28Z" stroke="#A93338" stroke-width="0.6" mask="url(#path-1-outside-1_115_600)"/>
<path d="M368.725 18.36C368.725 16.12 368.365 14.48 367.645 13.44C366.925 12.4 365.565 11.88 363.565 11.88C362.845 11.88 362.045 11.98 361.165 12.18L361.045 11.58C361.765 11.34 362.665 11.22 363.745 11.22C365.865 11.22 367.365 11.82 368.245 13.02C369.125 14.18 369.565 15.96 369.565 18.36V47.52C366.725 49.76 363.745 51.22 360.625 51.9C355.305 51.86 351.705 50.64 349.825 48.24C347.985 45.84 347.065 41.76 347.065 36C347.065 32.76 347.185 28.94 347.425 24.54C347.665 20.1 347.785 17.78 347.785 17.58C347.785 15.74 347.425 14.34 346.705 13.38C346.025 12.38 344.705 11.88 342.745 11.88C342.025 11.88 341.225 11.98 340.345 12.18L340.225 11.58C340.945 11.34 341.845 11.22 342.925 11.22C346.005 11.22 347.805 12.54 348.325 15.18C348.805 12.54 350.605 11.22 353.725 11.22C354.805 11.22 355.705 11.34 356.425 11.58L356.305 12.18C355.425 11.98 354.625 11.88 353.905 11.88C351.945 11.88 350.585 12.38 349.825 13.38C349.105 14.34 348.705 16 348.625 18.36C348.145 29.72 347.905 35.6 347.905 36C347.905 41.44 348.745 45.3 350.425 47.58C352.145 49.86 355.505 51.06 360.505 51.18C363.705 50.38 366.445 49.02 368.725 47.1V18.36ZM371.965 18.36V44.58C371.965 46.82 372.325 48.46 373.045 49.5C373.765 50.54 375.125 51.06 377.125 51.06C377.845 51.06 378.645 50.96 379.525 50.76L379.645 51.36C378.925 51.6 378.025 51.72 376.945 51.72C374.825 51.72 373.325 51.14 372.445 49.98C371.565 48.78 371.125 46.98 371.125 44.58V18.36C371.125 15.96 371.565 14.18 372.445 13.02C373.325 11.82 374.825 11.22 376.945 11.22C378.025 11.22 378.925 11.34 379.645 11.58L379.525 12.18C378.645 11.98 377.845 11.88 377.125 11.88C375.125 11.88 373.765 12.4 373.045 13.44C372.325 14.48 371.965 16.12 371.965 18.36Z" stroke="#A93338" stroke-width="0.6" mask="url(#path-1-outside-1_115_600)"/>
<path d="M404.807 35.46C404.807 34.34 404.247 33.38 403.127 32.58C402.007 31.78 399.887 30.8 396.767 29.64C393.647 28.48 391.107 27.28 389.147 26.04C387.187 24.8 386.207 23.32 386.207 21.6C386.207 19.84 387.187 17.88 389.147 15.72C391.107 13.52 393.007 11.96 394.847 11.04C398.607 11.04 402.167 11.98 405.527 13.86L405.167 14.46C401.807 12.66 398.447 11.76 395.087 11.76L394.247 12.24C392.487 13.36 390.847 14.84 389.327 16.68C387.807 18.48 387.047 20.14 387.047 21.66C387.047 23.14 388.027 24.48 389.987 25.68C391.987 26.88 394.467 28.04 397.427 29.16C400.427 30.28 402.547 31.28 403.787 32.16C405.027 33.04 405.647 34.14 405.647 35.46C405.647 36.22 405.427 36.98 404.987 37.74C405.107 38.18 405.167 38.58 405.167 38.94C405.167 41.06 404.207 43.52 402.287 46.32C400.407 49.08 398.487 50.92 396.527 51.84C387.967 51.84 383.687 49.44 383.687 44.64C383.687 43.08 384.107 41.8 384.947 40.8C385.827 39.76 386.947 39.24 388.307 39.24C389.707 39.24 390.807 39.66 391.607 40.5C392.407 41.3 392.807 42.36 392.807 43.68C392.807 44.16 392.707 44.64 392.507 45.12L391.847 44.88C391.967 44.48 392.027 44.08 392.027 43.68C392.027 42.56 391.687 41.66 391.007 40.98C390.367 40.3 389.467 39.96 388.307 39.96C387.147 39.96 386.227 40.4 385.547 41.28C384.867 42.16 384.527 43.26 384.527 44.58C384.527 45.9 384.847 47.02 385.487 47.94C386.167 48.82 387.127 49.48 388.367 49.92C390.607 50.72 393.247 51.12 396.287 51.12C398.247 50.16 400.067 48.4 401.747 45.84C403.467 43.24 404.327 41.04 404.327 39.24C404.327 37.44 403.347 35.96 401.387 34.8C399.427 33.64 396.947 32.5 393.947 31.38C390.947 30.26 388.867 29.26 387.707 28.38C386.547 27.5 385.767 26.62 385.367 25.74L385.967 25.32C386.567 26.4 387.347 27.28 388.307 27.96C389.267 28.64 391.007 29.46 393.527 30.42C396.047 31.38 398.327 32.38 400.367 33.42C402.447 34.46 403.847 35.6 404.567 36.84C404.727 36.4 404.807 35.94 404.807 35.46Z" stroke="#A93338" stroke-width="0.6" mask="url(#path-1-outside-1_115_600)"/>
<path d="M432.954 12.3C434.274 12.66 435.354 13.38 436.194 14.46C437.034 15.5 437.454 16.62 437.454 17.82C437.454 18.98 437.234 19.8 436.794 20.28L436.314 19.92C436.554 19.36 436.674 18.7 436.674 17.94C436.674 16.26 435.994 14.92 434.634 13.92C433.314 12.88 431.614 12.36 429.534 12.36C429.294 12.36 429.054 12.36 428.814 12.36L421.254 12.78V30.6H428.694C431.574 30.6 433.014 29.78 433.014 28.14C433.014 27.7 432.914 27.28 432.714 26.88L433.314 26.58C433.634 26.98 433.794 27.54 433.794 28.26C433.794 28.94 433.514 29.54 432.954 30.06C432.434 30.58 431.794 30.9 431.034 31.02C432.594 31.54 433.534 33.02 433.854 35.46L433.134 35.64C432.854 34.08 432.394 32.98 431.754 32.34C431.114 31.66 430.074 31.32 428.634 31.32H421.254V48.48C424.614 50.2 427.674 51.06 430.434 51.06C433.234 51.06 435.174 50.62 436.254 49.74C437.374 48.86 437.934 47.3 437.934 45.06C437.934 44.34 437.834 43.68 437.634 43.08L438.294 42.78C438.574 43.46 438.714 44.22 438.714 45.06C438.714 47.46 438.094 49.18 436.854 50.22C435.614 51.26 433.714 51.78 431.154 51.78C427.434 51.78 423.854 50.84 420.414 48.96V12.12L429.234 11.64C433.394 11.48 436.994 10.68 440.034 9.24001C441.634 8.48001 442.894 7.44001 443.814 6.12001C444.734 4.76001 445.194 3.16001 445.194 1.32001L445.914 1.38001C445.914 4.58001 444.714 7.04001 442.314 8.76001C439.914 10.44 436.794 11.52 432.954 12C432.674 12 432.214 11.98 431.574 11.94V12.06C432.134 12.14 432.594 12.22 432.954 12.3ZM418.854 14.7V44.58C418.854 46.98 418.414 48.78 417.534 49.98C416.654 51.14 415.154 51.72 413.034 51.72C411.954 51.72 411.054 51.6 410.334 51.36L410.454 50.76C411.334 50.96 412.134 51.06 412.854 51.06C414.854 51.06 416.214 50.54 416.934 49.5C417.654 48.46 418.014 46.82 418.014 44.58V14.7C418.014 12.46 417.654 10.82 416.934 9.78001C416.214 8.74001 414.854 8.22001 412.854 8.22001C412.134 8.22001 411.334 8.32001 410.454 8.52001L410.334 7.92001C411.054 7.68001 411.954 7.56001 413.034 7.56001C415.154 7.56001 416.654 8.16001 417.534 9.36001C418.414 10.52 418.854 12.3 418.854 14.7Z" stroke="#A93338" stroke-width="0.6" mask="url(#path-1-outside-1_115_600)"/>
</g>
<defs>
<filter id="filter0_d_115_600" x="0.836273" y="0.93396" width="449.378" height="67.9661" filterUnits="userSpaceOnUse" color-interpolation-filters="sRGB">
<feFlood flood-opacity="0" result="BackgroundImageFix"/>
<feColorMatrix in="SourceAlpha" type="matrix" values="0 0 0 0 0 0 0 0 0 0 0 0 0 0 0 0 0 0 127 0" result="hardAlpha"/>
<feOffset dy="4"/>
<feGaussianBlur stdDeviation="2"/>
<feComposite in2="hardAlpha" operator="out"/>
<feColorMatrix type="matrix" values="0 0 0 0 0 0 0 0 0 0 0 0 0 0 0 0 0 0 0.25 0"/>
<feBlend mode="normal" in2="BackgroundImageFix" result="effect1_dropShadow_115_600"/>
<feBlend mode="normal" in="SourceGraphic" in2="effect1_dropShadow_115_600" result="shape"/>
</filter>
</defs>
</svg>
