<svg width="436" height="109" viewBox="0 0 436 109" fill="none" xmlns="http://www.w3.org/2000/svg">
<g filter="url(#filter0_d_136_3)">
<mask id="path-1-outside-1_136_3" maskUnits="userSpaceOnUse" x="4" y="0.0999756" width="428" height="101" fill="black">
<rect fill="white" x="4" y="0.0999756" width="428" height="101"/>
<path d="M56.4 17.7C62.2 17.7 66.4667 18.6666 69.2 20.6C72 22.5333 73.4 26.0666 73.4 31.2C73.4 34.4666 72.5 37.4666 70.7 40.2C68.9 42.8666 66.5333 44.8333 63.6 46.1L61.3 46.6L61.4 46.8C62.3333 46.6666 63.2333 46.6 64.1 46.6C68.5667 46.9333 72.0667 48.4 74.6 51C77.1333 53.5333 78.4 57.3333 78.4 62.4C78.4 67.4 76.4333 72.1333 72.5 76.6C68.6333 81 63.8333 83.9667 58.1 85.5C55.6333 85.5 52.7667 85 49.5 84C46.2333 83.0667 43.4667 81.9666 41.2 80.7V18.5C48.8 17.9666 53.8667 17.7 56.4 17.7ZM38.6 73.3C38.6 77.3 37.8667 80.3 36.4 82.3C34.9333 84.2333 32.4333 85.2 28.9 85.2C27.1 85.2 25.6 85 24.4 84.6L24.6 83.6C26.0667 83.9333 27.4 84.1 28.6 84.1C31.9333 84.1 34.2 83.2333 35.4 81.5C36.6 79.7667 37.2 77.0333 37.2 73.3V20C33.4667 20.2666 30.7333 20.7666 29 21.5C25.0667 23.1666 23.1 25.8666 23.1 29.6C23.1 31.2 23.4333 32.6333 24.1 33.9L23.3 34.5C22.3 33.3666 21.8 31.7666 21.8 29.7C21.8 25.3 24 22.3 28.4 20.7C29.2 20.4333 29.9333 20.2 30.6 20V19.8L28.3 20.2C21.9 20.0666 16.5667 18.8 12.3 16.4C7.96667 13.9333 5.53333 10.0666 5 4.79998L6.2 4.59998C7.26667 14.2 15.5333 19 31 19C33.1333 19 35.6667 18.9 38.6 18.7V73.3ZM72 30.8C72 26.4 70.7333 23.3333 68.2 21.6C65.7333 19.8 62.2667 18.9 57.8 18.9C53.4 18.9 48.3333 19.1333 42.6 19.6V80C48.4667 82.8666 53.5333 84.3 57.8 84.3C63.2 82.7666 67.7333 79.9 71.4 75.7C75.1333 71.5 77 66.9333 77 62C77 57 75.5333 53.3333 72.6 51C69.7333 48.6 65.7667 47.4 60.7 47.4C55.9 47.4 53.0333 48.0666 52.1 49.4C51.6333 50.0666 51.4 51 51.4 52.2C51.4 53.4 51.8 54.4 52.6 55.2C53.4667 55.9333 54.5667 56.3666 55.9 56.5L55.7 57.5C54.1 57.3666 52.7333 56.8333 51.6 55.9C50.5333 54.9 50 53.7 50 52.3C50 49.4333 51.4333 47.7 54.3 47.1C52.6333 46.9666 51.2667 46.4666 50.2 45.6C49.1333 44.6666 48.6 43.4333 48.6 41.9C48.6 40.3666 49.1333 39.1333 50.2 38.2C51.3333 37.2 52.7 36.6333 54.3 36.5L54.5 37.5C53.1667 37.6333 52.0667 38.1 51.2 38.9C50.4 39.6333 50 40.7 50 42.1C50 43.5 50.6 44.5666 51.8 45.3C53.0667 46.0333 54.6333 46.4 56.5 46.4C61.0333 46.4 64.7333 44.9 67.6 41.9C70.5333 38.9 72 35.2 72 30.8Z"/>
<path d="M136.934 58.7L115.934 58.6L111.434 75.5C110.434 79.3 109.467 82.4333 108.534 84.9C107.6 87.3666 106.367 89.8666 104.834 92.4C101.634 97.4666 96.9003 100 90.6336 100V98.8C95.6336 98.8 99.5336 97.1 102.334 93.7C105.134 90.3666 107.367 85.7666 109.034 79.9L110.034 77.8L109.834 77.7C107.567 82.7666 103.967 85.3 99.0336 85.3C95.7669 85.3 93.0669 84.2 90.9336 82C88.8003 79.8 87.7336 77.0333 87.7336 73.7C87.7336 62.8333 96.8003 57.4 114.934 57.4L124.934 19.6L121.834 19.5C121.567 19.5 121.3 19.5 121.034 19.5C117.367 19.5 114.4 20.3666 112.134 22.1C109.867 23.7666 108.734 26 108.734 28.8C108.734 30.1333 108.934 31.2333 109.334 32.1L108.534 32.7C107.8 31.9 107.434 30.5333 107.434 28.6C107.434 26.6 108.134 24.7333 109.534 23C110.934 21.2 112.734 20 114.934 19.4C115.534 19.2666 116.3 19.1333 117.234 19V18.8L114.934 18.9C108.534 18.1 103.334 16.3 99.3336 13.5C95.3336 10.6333 93.3336 6.53331 93.3336 1.19997L94.5336 1.09998C94.5336 4.16664 95.3003 6.83331 96.8336 9.09998C98.3669 11.3 100.467 13.0333 103.134 14.3C108.2 16.7 114.2 18.0333 121.134 18.3L138.334 19.1V73.3C138.334 77.3 137.6 80.3 136.134 82.3C134.667 84.2333 132.167 85.2 128.634 85.2C126.834 85.2 125.334 85 124.134 84.6L124.334 83.6C125.8 83.9333 127.134 84.1 128.334 84.1C131.667 84.1 133.934 83.2333 135.134 81.5C136.334 79.7667 136.934 77.0333 136.934 73.3V58.7ZM121.034 57.4L136.934 57.5V20.2L126.234 19.7L116.234 57.4H121.034ZM89.1336 73.7C89.1336 76.6333 90.0669 79.1 91.9336 81.1C93.8003 83.1 96.1669 84.1 99.0336 84.1C103.634 84.1 107.034 81.6666 109.234 76.8C110.434 74.0666 111.467 70.8666 112.334 67.2L114.634 58.6C97.6336 58.7333 89.1336 63.7666 89.1336 73.7ZM140.934 73.3V23.5C140.934 19.5 141.667 16.5333 143.134 14.6C144.6 12.6 147.1 11.6 150.634 11.6C152.434 11.6 153.934 11.8 155.134 12.2L154.934 13.2C153.467 12.8666 152.134 12.7 150.934 12.7C147.6 12.7 145.334 13.5666 144.134 15.3C142.934 17.0333 142.334 19.7666 142.334 23.5V73.3C142.334 77.0333 142.934 79.7667 144.134 81.5C145.334 83.2333 147.6 84.1 150.934 84.1C152.134 84.1 153.467 83.9333 154.934 83.6L155.134 84.6C153.934 85 152.434 85.2 150.634 85.2C147.1 85.2 144.6 84.2333 143.134 82.3C141.667 80.3 140.934 77.3 140.934 73.3Z"/>
<path d="M193.911 84.1C199.178 84.1 201.811 81.5 201.811 76.3C201.811 74.5666 201.544 73.2666 201.011 72.4L201.911 71.8C202.711 72.8 203.111 74.5666 203.111 77.1C203.111 79.5667 202.278 81.5666 200.611 83.1C199.011 84.5666 196.511 85.3 193.111 85.3C189.711 85.3 184.111 84.2666 176.311 82.2L164.511 79.2C163.711 80.7333 162.878 82.7333 162.011 85.2L160.311 84.9V81.2C160.311 77.0666 161.511 73 163.911 69C165.178 66.8666 166.611 64.6666 168.211 62.4C169.878 60.0666 170.844 58.7 171.111 58.3L189.611 31.7C192.678 27.1666 194.911 23.4666 196.311 20.6L187.611 20.1C181.744 19.7 177.378 19.5 174.511 19.5C166.778 19.5 162.911 22.5 162.911 28.5C162.911 30.7 163.478 32.5333 164.611 34C165.744 35.4666 167.278 36.2 169.211 36.2C171.144 36.2 172.644 35.6333 173.711 34.5C174.844 33.3666 175.411 31.8666 175.411 30C175.411 29.3333 175.311 28.6666 175.111 28L176.211 27.6C176.544 28.4 176.711 29.2 176.711 30C176.711 32.2 176.044 34 174.711 35.4C173.378 36.7333 171.544 37.4 169.211 37.4C166.944 37.4 165.078 36.5666 163.611 34.9C162.211 33.1666 161.511 31 161.511 28.4C161.511 21.6666 165.978 18.3 174.911 18.3C177.778 18.3 182.144 18.5 188.011 18.9L198.011 19.5L198.211 19.6C196.744 23 194.344 27.1333 191.011 32L172.111 59.2C167.578 65.6 164.711 70.2333 163.511 73.1C162.311 75.9667 161.711 78.5333 161.711 80.8V82.5C163.111 78.3 166.578 72.2666 172.111 64.4L193.711 33.3C197.911 27.3666 200.411 22.8 201.211 19.6L202.611 19.5C202.078 22.3 199.678 26.8666 195.411 33.2L173.011 65.4C169.544 70.3333 166.911 74.5333 165.111 78L176.711 81C184.778 83.0667 190.511 84.1 193.911 84.1Z"/>
<path d="M255.781 58.7L234.781 58.6L230.281 75.5C229.281 79.3 228.315 82.4333 227.381 84.9C226.448 87.3666 225.215 89.8666 223.681 92.4C220.481 97.4666 215.748 100 209.481 100V98.8C214.481 98.8 218.381 97.1 221.181 93.7C223.981 90.3666 226.215 85.7666 227.881 79.9L228.881 77.8L228.681 77.7C226.415 82.7666 222.815 85.3 217.881 85.3C214.615 85.3 211.915 84.2 209.781 82C207.648 79.8 206.581 77.0333 206.581 73.7C206.581 62.8333 215.648 57.4 233.781 57.4L243.781 19.6L240.681 19.5C240.415 19.5 240.148 19.5 239.881 19.5C236.215 19.5 233.248 20.3666 230.981 22.1C228.715 23.7666 227.581 26 227.581 28.8C227.581 30.1333 227.781 31.2333 228.181 32.1L227.381 32.7C226.648 31.9 226.281 30.5333 226.281 28.6C226.281 26.6 226.981 24.7333 228.381 23C229.781 21.2 231.581 20 233.781 19.4C234.381 19.2666 235.148 19.1333 236.081 19V18.8L233.781 18.9C227.381 18.1 222.181 16.3 218.181 13.5C214.181 10.6333 212.181 6.53331 212.181 1.19997L213.381 1.09998C213.381 4.16664 214.148 6.83331 215.681 9.09998C217.215 11.3 219.315 13.0333 221.981 14.3C227.048 16.7 233.048 18.0333 239.981 18.3L257.181 19.1V73.3C257.181 77.3 256.448 80.3 254.981 82.3C253.515 84.2333 251.015 85.2 247.481 85.2C245.681 85.2 244.181 85 242.981 84.6L243.181 83.6C244.648 83.9333 245.981 84.1 247.181 84.1C250.515 84.1 252.781 83.2333 253.981 81.5C255.181 79.7667 255.781 77.0333 255.781 73.3V58.7ZM239.881 57.4L255.781 57.5V20.2L245.081 19.7L235.081 57.4H239.881ZM207.981 73.7C207.981 76.6333 208.915 79.1 210.781 81.1C212.648 83.1 215.015 84.1 217.881 84.1C222.481 84.1 225.881 81.6666 228.081 76.8C229.281 74.0666 230.315 70.8666 231.181 67.2L233.481 58.6C216.481 58.7333 207.981 63.7666 207.981 73.7ZM259.781 73.3V23.5C259.781 19.5 260.515 16.5333 261.981 14.6C263.448 12.6 265.948 11.6 269.481 11.6C271.281 11.6 272.781 11.8 273.981 12.2L273.781 13.2C272.315 12.8666 270.981 12.7 269.781 12.7C266.448 12.7 264.181 13.5666 262.981 15.3C261.781 17.0333 261.181 19.7666 261.181 23.5V73.3C261.181 77.0333 261.781 79.7667 262.981 81.5C264.181 83.2333 266.448 84.1 269.781 84.1C270.981 84.1 272.315 83.9333 273.781 83.6L273.981 84.6C272.781 85 271.281 85.2 269.481 85.2C265.948 85.2 263.448 84.2333 261.981 82.3C260.515 80.3 259.781 77.3 259.781 73.3Z"/>
<path d="M327.559 58.7L306.559 58.6L302.059 75.5C301.059 79.3 300.092 82.4333 299.159 84.9C298.225 87.3666 296.992 89.8666 295.459 92.4C292.259 97.4666 287.525 100 281.259 100V98.8C286.259 98.8 290.159 97.1 292.959 93.7C295.759 90.3666 297.992 85.7666 299.659 79.9L300.659 77.8L300.459 77.7C298.192 82.7666 294.592 85.3 289.659 85.3C286.392 85.3 283.692 84.2 281.559 82C279.425 79.8 278.359 77.0333 278.359 73.7C278.359 62.8333 287.425 57.4 305.559 57.4L315.559 19.6L312.459 19.5C312.192 19.5 311.925 19.5 311.659 19.5C307.992 19.5 305.025 20.3666 302.759 22.1C300.492 23.7666 299.359 26 299.359 28.8C299.359 30.1333 299.559 31.2333 299.959 32.1L299.159 32.7C298.425 31.9 298.059 30.5333 298.059 28.6C298.059 26.6 298.759 24.7333 300.159 23C301.559 21.2 303.359 20 305.559 19.4C306.159 19.2666 306.925 19.1333 307.859 19V18.8L305.559 18.9C299.159 18.1 293.959 16.3 289.959 13.5C285.959 10.6333 283.959 6.53331 283.959 1.19997L285.159 1.09998C285.159 4.16664 285.925 6.83331 287.459 9.09998C288.992 11.3 291.092 13.0333 293.759 14.3C298.825 16.7 304.825 18.0333 311.759 18.3L328.959 19.1V73.3C328.959 77.3 328.225 80.3 326.759 82.3C325.292 84.2333 322.792 85.2 319.259 85.2C317.459 85.2 315.959 85 314.759 84.6L314.959 83.6C316.425 83.9333 317.759 84.1 318.959 84.1C322.292 84.1 324.559 83.2333 325.759 81.5C326.959 79.7667 327.559 77.0333 327.559 73.3V58.7ZM311.659 57.4L327.559 57.5V20.2L316.859 19.7L306.859 57.4H311.659ZM279.759 73.7C279.759 76.6333 280.692 79.1 282.559 81.1C284.425 83.1 286.792 84.1 289.659 84.1C294.259 84.1 297.659 81.6666 299.859 76.8C301.059 74.0666 302.092 70.8666 302.959 67.2L305.259 58.6C288.259 58.7333 279.759 63.7666 279.759 73.7ZM331.559 73.3V23.5C331.559 19.5 332.292 16.5333 333.759 14.6C335.225 12.6 337.725 11.6 341.259 11.6C343.059 11.6 344.559 11.8 345.759 12.2L345.559 13.2C344.092 12.8666 342.759 12.7 341.559 12.7C338.225 12.7 335.959 13.5666 334.759 15.3C333.559 17.0333 332.959 19.7666 332.959 23.5V73.3C332.959 77.0333 333.559 79.7667 334.759 81.5C335.959 83.2333 338.225 84.1 341.559 84.1C342.759 84.1 344.092 83.9333 345.559 83.6L345.759 84.6C344.559 85 343.059 85.2 341.259 85.2C337.725 85.2 335.225 84.2333 333.759 82.3C332.292 80.3 331.559 77.3 331.559 73.3Z"/>
<path d="M366.436 73.3C366.436 77.3 365.703 80.3 364.236 82.3C362.769 84.2333 360.269 85.2 356.736 85.2C354.936 85.2 353.436 85 352.236 84.6L352.436 83.6C353.903 83.9333 355.236 84.1 356.436 84.1C359.769 84.1 362.036 83.2333 363.236 81.5C364.436 79.7667 365.036 77.0333 365.036 73.3V20C361.303 20.2666 358.569 20.7666 356.836 21.5C352.903 23.1666 350.936 25.8666 350.936 29.6C350.936 31.2 351.269 32.6333 351.936 33.9L351.136 34.5C350.136 33.3666 349.636 31.7666 349.636 29.7C349.636 25.3 351.836 22.3 356.236 20.7C357.036 20.4333 357.769 20.2 358.436 20V19.8L356.136 20.2C349.736 20.0666 344.403 18.8 340.136 16.4C335.803 13.9333 333.369 10.0666 332.836 4.79998L334.036 4.59998C335.103 14.2 343.369 19 358.836 19C360.969 19 363.503 18.9 366.436 18.7V73.3ZM369.036 73.3V18.5C376.636 17.9666 381.703 17.7 384.236 17.7C390.236 17.7 394.603 18.8666 397.336 21.2C400.136 23.5333 401.536 27.3666 401.536 32.7C401.536 37.9666 400.036 42.2333 397.036 45.5C394.036 48.7666 390.103 50.5 385.236 50.7C387.436 52.3666 389.936 55.9333 392.736 61.4L398.736 73.2C401.336 78.4 403.503 82.4 405.236 85.2C407.036 88 409.169 90.6 411.636 93C414.103 95.4667 416.836 97.1666 419.836 98.1C422.903 99.0333 426.603 99.5 430.936 99.5V100.6C426.536 100.6 422.803 100.167 419.736 99.3C416.736 98.4333 413.936 96.8 411.336 94.4C408.736 92.0666 406.469 89.4 404.536 86.4C402.603 83.4 400.269 79.2 397.536 73.8L391.536 62C389.403 57.8 387.636 54.9 386.236 53.3C384.836 51.6333 383.369 50.7 381.836 50.5C378.236 49.9 376.436 48.1 376.436 45.1C376.436 43.5666 376.969 42.3333 378.036 41.4C379.169 40.4 380.536 39.8333 382.136 39.7L382.336 40.7C381.003 40.8333 379.903 41.3 379.036 42.1C378.236 42.8333 377.836 43.8333 377.836 45.1C377.836 48.1 380.103 49.6 384.636 49.6C389.169 49.6 392.869 48.1 395.736 45.1C398.669 42.0333 400.136 38 400.136 33C400.136 27.9333 398.869 24.3333 396.336 22.2C393.803 20 389.803 18.9 384.336 18.9C382.669 18.9 378.036 19.1333 370.436 19.6V73.3C370.436 77.0333 371.036 79.7667 372.236 81.5C373.436 83.2333 375.703 84.1 379.036 84.1C380.236 84.1 381.569 83.9333 383.036 83.6L383.236 84.6C382.036 85 380.536 85.2 378.736 85.2C375.203 85.2 372.703 84.2333 371.236 82.3C369.769 80.3 369.036 77.3 369.036 73.3Z"/>
</mask>
<path d="M56.4 17.7C62.2 17.7 66.4667 18.6666 69.2 20.6C72 22.5333 73.4 26.0666 73.4 31.2C73.4 34.4666 72.5 37.4666 70.7 40.2C68.9 42.8666 66.5333 44.8333 63.6 46.1L61.3 46.6L61.4 46.8C62.3333 46.6666 63.2333 46.6 64.1 46.6C68.5667 46.9333 72.0667 48.4 74.6 51C77.1333 53.5333 78.4 57.3333 78.4 62.4C78.4 67.4 76.4333 72.1333 72.5 76.6C68.6333 81 63.8333 83.9667 58.1 85.5C55.6333 85.5 52.7667 85 49.5 84C46.2333 83.0667 43.4667 81.9666 41.2 80.7V18.5C48.8 17.9666 53.8667 17.7 56.4 17.7ZM38.6 73.3C38.6 77.3 37.8667 80.3 36.4 82.3C34.9333 84.2333 32.4333 85.2 28.9 85.2C27.1 85.2 25.6 85 24.4 84.6L24.6 83.6C26.0667 83.9333 27.4 84.1 28.6 84.1C31.9333 84.1 34.2 83.2333 35.4 81.5C36.6 79.7667 37.2 77.0333 37.2 73.3V20C33.4667 20.2666 30.7333 20.7666 29 21.5C25.0667 23.1666 23.1 25.8666 23.1 29.6C23.1 31.2 23.4333 32.6333 24.1 33.9L23.3 34.5C22.3 33.3666 21.8 31.7666 21.8 29.7C21.8 25.3 24 22.3 28.4 20.7C29.2 20.4333 29.9333 20.2 30.6 20V19.8L28.3 20.2C21.9 20.0666 16.5667 18.8 12.3 16.4C7.96667 13.9333 5.53333 10.0666 5 4.79998L6.2 4.59998C7.26667 14.2 15.5333 19 31 19C33.1333 19 35.6667 18.9 38.6 18.7V73.3ZM72 30.8C72 26.4 70.7333 23.3333 68.2 21.6C65.7333 19.8 62.2667 18.9 57.8 18.9C53.4 18.9 48.3333 19.1333 42.6 19.6V80C48.4667 82.8666 53.5333 84.3 57.8 84.3C63.2 82.7666 67.7333 79.9 71.4 75.7C75.1333 71.5 77 66.9333 77 62C77 57 75.5333 53.3333 72.6 51C69.7333 48.6 65.7667 47.4 60.7 47.4C55.9 47.4 53.0333 48.0666 52.1 49.4C51.6333 50.0666 51.4 51 51.4 52.2C51.4 53.4 51.8 54.4 52.6 55.2C53.4667 55.9333 54.5667 56.3666 55.9 56.5L55.7 57.5C54.1 57.3666 52.7333 56.8333 51.6 55.9C50.5333 54.9 50 53.7 50 52.3C50 49.4333 51.4333 47.7 54.3 47.1C52.6333 46.9666 51.2667 46.4666 50.2 45.6C49.1333 44.6666 48.6 43.4333 48.6 41.9C48.6 40.3666 49.1333 39.1333 50.2 38.2C51.3333 37.2 52.7 36.6333 54.3 36.5L54.5 37.5C53.1667 37.6333 52.0667 38.1 51.2 38.9C50.4 39.6333 50 40.7 50 42.1C50 43.5 50.6 44.5666 51.8 45.3C53.0667 46.0333 54.6333 46.4 56.5 46.4C61.0333 46.4 64.7333 44.9 67.6 41.9C70.5333 38.9 72 35.2 72 30.8Z" fill="#A93338"/>
<path d="M136.934 58.7L115.934 58.6L111.434 75.5C110.434 79.3 109.467 82.4333 108.534 84.9C107.6 87.3666 106.367 89.8666 104.834 92.4C101.634 97.4666 96.9003 100 90.6336 100V98.8C95.6336 98.8 99.5336 97.1 102.334 93.7C105.134 90.3666 107.367 85.7666 109.034 79.9L110.034 77.8L109.834 77.7C107.567 82.7666 103.967 85.3 99.0336 85.3C95.7669 85.3 93.0669 84.2 90.9336 82C88.8003 79.8 87.7336 77.0333 87.7336 73.7C87.7336 62.8333 96.8003 57.4 114.934 57.4L124.934 19.6L121.834 19.5C121.567 19.5 121.3 19.5 121.034 19.5C117.367 19.5 114.4 20.3666 112.134 22.1C109.867 23.7666 108.734 26 108.734 28.8C108.734 30.1333 108.934 31.2333 109.334 32.1L108.534 32.7C107.8 31.9 107.434 30.5333 107.434 28.6C107.434 26.6 108.134 24.7333 109.534 23C110.934 21.2 112.734 20 114.934 19.4C115.534 19.2666 116.3 19.1333 117.234 19V18.8L114.934 18.9C108.534 18.1 103.334 16.3 99.3336 13.5C95.3336 10.6333 93.3336 6.53331 93.3336 1.19997L94.5336 1.09998C94.5336 4.16664 95.3003 6.83331 96.8336 9.09998C98.3669 11.3 100.467 13.0333 103.134 14.3C108.2 16.7 114.2 18.0333 121.134 18.3L138.334 19.1V73.3C138.334 77.3 137.6 80.3 136.134 82.3C134.667 84.2333 132.167 85.2 128.634 85.2C126.834 85.2 125.334 85 124.134 84.6L124.334 83.6C125.8 83.9333 127.134 84.1 128.334 84.1C131.667 84.1 133.934 83.2333 135.134 81.5C136.334 79.7667 136.934 77.0333 136.934 73.3V58.7ZM121.034 57.4L136.934 57.5V20.2L126.234 19.7L116.234 57.4H121.034ZM89.1336 73.7C89.1336 76.6333 90.0669 79.1 91.9336 81.1C93.8003 83.1 96.1669 84.1 99.0336 84.1C103.634 84.1 107.034 81.6666 109.234 76.8C110.434 74.0666 111.467 70.8666 112.334 67.2L114.634 58.6C97.6336 58.7333 89.1336 63.7666 89.1336 73.7ZM140.934 73.3V23.5C140.934 19.5 141.667 16.5333 143.134 14.6C144.6 12.6 147.1 11.6 150.634 11.6C152.434 11.6 153.934 11.8 155.134 12.2L154.934 13.2C153.467 12.8666 152.134 12.7 150.934 12.7C147.6 12.7 145.334 13.5666 144.134 15.3C142.934 17.0333 142.334 19.7666 142.334 23.5V73.3C142.334 77.0333 142.934 79.7667 144.134 81.5C145.334 83.2333 147.6 84.1 150.934 84.1C152.134 84.1 153.467 83.9333 154.934 83.6L155.134 84.6C153.934 85 152.434 85.2 150.634 85.2C147.1 85.2 144.6 84.2333 143.134 82.3C141.667 80.3 140.934 77.3 140.934 73.3Z" fill="#A93338"/>
<path d="M193.911 84.1C199.178 84.1 201.811 81.5 201.811 76.3C201.811 74.5666 201.544 73.2666 201.011 72.4L201.911 71.8C202.711 72.8 203.111 74.5666 203.111 77.1C203.111 79.5667 202.278 81.5666 200.611 83.1C199.011 84.5666 196.511 85.3 193.111 85.3C189.711 85.3 184.111 84.2666 176.311 82.2L164.511 79.2C163.711 80.7333 162.878 82.7333 162.011 85.2L160.311 84.9V81.2C160.311 77.0666 161.511 73 163.911 69C165.178 66.8666 166.611 64.6666 168.211 62.4C169.878 60.0666 170.844 58.7 171.111 58.3L189.611 31.7C192.678 27.1666 194.911 23.4666 196.311 20.6L187.611 20.1C181.744 19.7 177.378 19.5 174.511 19.5C166.778 19.5 162.911 22.5 162.911 28.5C162.911 30.7 163.478 32.5333 164.611 34C165.744 35.4666 167.278 36.2 169.211 36.2C171.144 36.2 172.644 35.6333 173.711 34.5C174.844 33.3666 175.411 31.8666 175.411 30C175.411 29.3333 175.311 28.6666 175.111 28L176.211 27.6C176.544 28.4 176.711 29.2 176.711 30C176.711 32.2 176.044 34 174.711 35.4C173.378 36.7333 171.544 37.4 169.211 37.4C166.944 37.4 165.078 36.5666 163.611 34.9C162.211 33.1666 161.511 31 161.511 28.4C161.511 21.6666 165.978 18.3 174.911 18.3C177.778 18.3 182.144 18.5 188.011 18.9L198.011 19.5L198.211 19.6C196.744 23 194.344 27.1333 191.011 32L172.111 59.2C167.578 65.6 164.711 70.2333 163.511 73.1C162.311 75.9667 161.711 78.5333 161.711 80.8V82.5C163.111 78.3 166.578 72.2666 172.111 64.4L193.711 33.3C197.911 27.3666 200.411 22.8 201.211 19.6L202.611 19.5C202.078 22.3 199.678 26.8666 195.411 33.2L173.011 65.4C169.544 70.3333 166.911 74.5333 165.111 78L176.711 81C184.778 83.0667 190.511 84.1 193.911 84.1Z" fill="#A93338"/>
<path d="M255.781 58.7L234.781 58.6L230.281 75.5C229.281 79.3 228.315 82.4333 227.381 84.9C226.448 87.3666 225.215 89.8666 223.681 92.4C220.481 97.4666 215.748 100 209.481 100V98.8C214.481 98.8 218.381 97.1 221.181 93.7C223.981 90.3666 226.215 85.7666 227.881 79.9L228.881 77.8L228.681 77.7C226.415 82.7666 222.815 85.3 217.881 85.3C214.615 85.3 211.915 84.2 209.781 82C207.648 79.8 206.581 77.0333 206.581 73.7C206.581 62.8333 215.648 57.4 233.781 57.4L243.781 19.6L240.681 19.5C240.415 19.5 240.148 19.5 239.881 19.5C236.215 19.5 233.248 20.3666 230.981 22.1C228.715 23.7666 227.581 26 227.581 28.8C227.581 30.1333 227.781 31.2333 228.181 32.1L227.381 32.7C226.648 31.9 226.281 30.5333 226.281 28.6C226.281 26.6 226.981 24.7333 228.381 23C229.781 21.2 231.581 20 233.781 19.4C234.381 19.2666 235.148 19.1333 236.081 19V18.8L233.781 18.9C227.381 18.1 222.181 16.3 218.181 13.5C214.181 10.6333 212.181 6.53331 212.181 1.19997L213.381 1.09998C213.381 4.16664 214.148 6.83331 215.681 9.09998C217.215 11.3 219.315 13.0333 221.981 14.3C227.048 16.7 233.048 18.0333 239.981 18.3L257.181 19.1V73.3C257.181 77.3 256.448 80.3 254.981 82.3C253.515 84.2333 251.015 85.2 247.481 85.2C245.681 85.2 244.181 85 242.981 84.6L243.181 83.6C244.648 83.9333 245.981 84.1 247.181 84.1C250.515 84.1 252.781 83.2333 253.981 81.5C255.181 79.7667 255.781 77.0333 255.781 73.3V58.7ZM239.881 57.4L255.781 57.5V20.2L245.081 19.7L235.081 57.4H239.881ZM207.981 73.7C207.981 76.6333 208.915 79.1 210.781 81.1C212.648 83.1 215.015 84.1 217.881 84.1C222.481 84.1 225.881 81.6666 228.081 76.8C229.281 74.0666 230.315 70.8666 231.181 67.2L233.481 58.6C216.481 58.7333 207.981 63.7666 207.981 73.7ZM259.781 73.3V23.5C259.781 19.5 260.515 16.5333 261.981 14.6C263.448 12.6 265.948 11.6 269.481 11.6C271.281 11.6 272.781 11.8 273.981 12.2L273.781 13.2C272.315 12.8666 270.981 12.7 269.781 12.7C266.448 12.7 264.181 13.5666 262.981 15.3C261.781 17.0333 261.181 19.7666 261.181 23.5V73.3C261.181 77.0333 261.781 79.7667 262.981 81.5C264.181 83.2333 266.448 84.1 269.781 84.1C270.981 84.1 272.315 83.9333 273.781 83.6L273.981 84.6C272.781 85 271.281 85.2 269.481 85.2C265.948 85.2 263.448 84.2333 261.981 82.3C260.515 80.3 259.781 77.3 259.781 73.3Z" fill="#A93338"/>
<path d="M327.559 58.7L306.559 58.6L302.059 75.5C301.059 79.3 300.092 82.4333 299.159 84.9C298.225 87.3666 296.992 89.8666 295.459 92.4C292.259 97.4666 287.525 100 281.259 100V98.8C286.259 98.8 290.159 97.1 292.959 93.7C295.759 90.3666 297.992 85.7666 299.659 79.9L300.659 77.8L300.459 77.7C298.192 82.7666 294.592 85.3 289.659 85.3C286.392 85.3 283.692 84.2 281.559 82C279.425 79.8 278.359 77.0333 278.359 73.7C278.359 62.8333 287.425 57.4 305.559 57.4L315.559 19.6L312.459 19.5C312.192 19.5 311.925 19.5 311.659 19.5C307.992 19.5 305.025 20.3666 302.759 22.1C300.492 23.7666 299.359 26 299.359 28.8C299.359 30.1333 299.559 31.2333 299.959 32.1L299.159 32.7C298.425 31.9 298.059 30.5333 298.059 28.6C298.059 26.6 298.759 24.7333 300.159 23C301.559 21.2 303.359 20 305.559 19.4C306.159 19.2666 306.925 19.1333 307.859 19V18.8L305.559 18.9C299.159 18.1 293.959 16.3 289.959 13.5C285.959 10.6333 283.959 6.53331 283.959 1.19997L285.159 1.09998C285.159 4.16664 285.925 6.83331 287.459 9.09998C288.992 11.3 291.092 13.0333 293.759 14.3C298.825 16.7 304.825 18.0333 311.759 18.3L328.959 19.1V73.3C328.959 77.3 328.225 80.3 326.759 82.3C325.292 84.2333 322.792 85.2 319.259 85.2C317.459 85.2 315.959 85 314.759 84.6L314.959 83.6C316.425 83.9333 317.759 84.1 318.959 84.1C322.292 84.1 324.559 83.2333 325.759 81.5C326.959 79.7667 327.559 77.0333 327.559 73.3V58.7ZM311.659 57.4L327.559 57.5V20.2L316.859 19.7L306.859 57.4H311.659ZM279.759 73.7C279.759 76.6333 280.692 79.1 282.559 81.1C284.425 83.1 286.792 84.1 289.659 84.1C294.259 84.1 297.659 81.6666 299.859 76.8C301.059 74.0666 302.092 70.8666 302.959 67.2L305.259 58.6C288.259 58.7333 279.759 63.7666 279.759 73.7ZM331.559 73.3V23.5C331.559 19.5 332.292 16.5333 333.759 14.6C335.225 12.6 337.725 11.6 341.259 11.6C343.059 11.6 344.559 11.8 345.759 12.2L345.559 13.2C344.092 12.8666 342.759 12.7 341.559 12.7C338.225 12.7 335.959 13.5666 334.759 15.3C333.559 17.0333 332.959 19.7666 332.959 23.5V73.3C332.959 77.0333 333.559 79.7667 334.759 81.5C335.959 83.2333 338.225 84.1 341.559 84.1C342.759 84.1 344.092 83.9333 345.559 83.6L345.759 84.6C344.559 85 343.059 85.2 341.259 85.2C337.725 85.2 335.225 84.2333 333.759 82.3C332.292 80.3 331.559 77.3 331.559 73.3Z" fill="#A93338"/>
<path d="M366.436 73.3C366.436 77.3 365.703 80.3 364.236 82.3C362.769 84.2333 360.269 85.2 356.736 85.2C354.936 85.2 353.436 85 352.236 84.6L352.436 83.6C353.903 83.9333 355.236 84.1 356.436 84.1C359.769 84.1 362.036 83.2333 363.236 81.5C364.436 79.7667 365.036 77.0333 365.036 73.3V20C361.303 20.2666 358.569 20.7666 356.836 21.5C352.903 23.1666 350.936 25.8666 350.936 29.6C350.936 31.2 351.269 32.6333 351.936 33.9L351.136 34.5C350.136 33.3666 349.636 31.7666 349.636 29.7C349.636 25.3 351.836 22.3 356.236 20.7C357.036 20.4333 357.769 20.2 358.436 20V19.8L356.136 20.2C349.736 20.0666 344.403 18.8 340.136 16.4C335.803 13.9333 333.369 10.0666 332.836 4.79998L334.036 4.59998C335.103 14.2 343.369 19 358.836 19C360.969 19 363.503 18.9 366.436 18.7V73.3ZM369.036 73.3V18.5C376.636 17.9666 381.703 17.7 384.236 17.7C390.236 17.7 394.603 18.8666 397.336 21.2C400.136 23.5333 401.536 27.3666 401.536 32.7C401.536 37.9666 400.036 42.2333 397.036 45.5C394.036 48.7666 390.103 50.5 385.236 50.7C387.436 52.3666 389.936 55.9333 392.736 61.4L398.736 73.2C401.336 78.4 403.503 82.4 405.236 85.2C407.036 88 409.169 90.6 411.636 93C414.103 95.4667 416.836 97.1666 419.836 98.1C422.903 99.0333 426.603 99.5 430.936 99.5V100.6C426.536 100.6 422.803 100.167 419.736 99.3C416.736 98.4333 413.936 96.8 411.336 94.4C408.736 92.0666 406.469 89.4 404.536 86.4C402.603 83.4 400.269 79.2 397.536 73.8L391.536 62C389.403 57.8 387.636 54.9 386.236 53.3C384.836 51.6333 383.369 50.7 381.836 50.5C378.236 49.9 376.436 48.1 376.436 45.1C376.436 43.5666 376.969 42.3333 378.036 41.4C379.169 40.4 380.536 39.8333 382.136 39.7L382.336 40.7C381.003 40.8333 379.903 41.3 379.036 42.1C378.236 42.8333 377.836 43.8333 377.836 45.1C377.836 48.1 380.103 49.6 384.636 49.6C389.169 49.6 392.869 48.1 395.736 45.1C398.669 42.0333 400.136 38 400.136 33C400.136 27.9333 398.869 24.3333 396.336 22.2C393.803 20 389.803 18.9 384.336 18.9C382.669 18.9 378.036 19.1333 370.436 19.6V73.3C370.436 77.0333 371.036 79.7667 372.236 81.5C373.436 83.2333 375.703 84.1 379.036 84.1C380.236 84.1 381.569 83.9333 383.036 83.6L383.236 84.6C382.036 85 380.536 85.2 378.736 85.2C375.203 85.2 372.703 84.2333 371.236 82.3C369.769 80.3 369.036 77.3 369.036 73.3Z" fill="#A93338"/>
<path d="M56.4 17.7C62.2 17.7 66.4667 18.6666 69.2 20.6C72 22.5333 73.4 26.0666 73.4 31.2C73.4 34.4666 72.5 37.4666 70.7 40.2C68.9 42.8666 66.5333 44.8333 63.6 46.1L61.3 46.6L61.4 46.8C62.3333 46.6666 63.2333 46.6 64.1 46.6C68.5667 46.9333 72.0667 48.4 74.6 51C77.1333 53.5333 78.4 57.3333 78.4 62.4C78.4 67.4 76.4333 72.1333 72.5 76.6C68.6333 81 63.8333 83.9667 58.1 85.5C55.6333 85.5 52.7667 85 49.5 84C46.2333 83.0667 43.4667 81.9666 41.2 80.7V18.5C48.8 17.9666 53.8667 17.7 56.4 17.7ZM38.6 73.3C38.6 77.3 37.8667 80.3 36.4 82.3C34.9333 84.2333 32.4333 85.2 28.9 85.2C27.1 85.2 25.6 85 24.4 84.6L24.6 83.6C26.0667 83.9333 27.4 84.1 28.6 84.1C31.9333 84.1 34.2 83.2333 35.4 81.5C36.6 79.7667 37.2 77.0333 37.2 73.3V20C33.4667 20.2666 30.7333 20.7666 29 21.5C25.0667 23.1666 23.1 25.8666 23.1 29.6C23.1 31.2 23.4333 32.6333 24.1 33.9L23.3 34.5C22.3 33.3666 21.8 31.7666 21.8 29.7C21.8 25.3 24 22.3 28.4 20.7C29.2 20.4333 29.9333 20.2 30.6 20V19.8L28.3 20.2C21.9 20.0666 16.5667 18.8 12.3 16.4C7.96667 13.9333 5.53333 10.0666 5 4.79998L6.2 4.59998C7.26667 14.2 15.5333 19 31 19C33.1333 19 35.6667 18.9 38.6 18.7V73.3ZM72 30.8C72 26.4 70.7333 23.3333 68.2 21.6C65.7333 19.8 62.2667 18.9 57.8 18.9C53.4 18.9 48.3333 19.1333 42.6 19.6V80C48.4667 82.8666 53.5333 84.3 57.8 84.3C63.2 82.7666 67.7333 79.9 71.4 75.7C75.1333 71.5 77 66.9333 77 62C77 57 75.5333 53.3333 72.6 51C69.7333 48.6 65.7667 47.4 60.7 47.4C55.9 47.4 53.0333 48.0666 52.1 49.4C51.6333 50.0666 51.4 51 51.4 52.2C51.4 53.4 51.8 54.4 52.6 55.2C53.4667 55.9333 54.5667 56.3666 55.9 56.5L55.7 57.5C54.1 57.3666 52.7333 56.8333 51.6 55.9C50.5333 54.9 50 53.7 50 52.3C50 49.4333 51.4333 47.7 54.3 47.1C52.6333 46.9666 51.2667 46.4666 50.2 45.6C49.1333 44.6666 48.6 43.4333 48.6 41.9C48.6 40.3666 49.1333 39.1333 50.2 38.2C51.3333 37.2 52.7 36.6333 54.3 36.5L54.5 37.5C53.1667 37.6333 52.0667 38.1 51.2 38.9C50.4 39.6333 50 40.7 50 42.1C50 43.5 50.6 44.5666 51.8 45.3C53.0667 46.0333 54.6333 46.4 56.5 46.4C61.0333 46.4 64.7333 44.9 67.6 41.9C70.5333 38.9 72 35.2 72 30.8Z" stroke="#A93338" stroke-width="0.6" mask="url(#path-1-outside-1_136_3)"/>
<path d="M136.934 58.7L115.934 58.6L111.434 75.5C110.434 79.3 109.467 82.4333 108.534 84.9C107.6 87.3666 106.367 89.8666 104.834 92.4C101.634 97.4666 96.9003 100 90.6336 100V98.8C95.6336 98.8 99.5336 97.1 102.334 93.7C105.134 90.3666 107.367 85.7666 109.034 79.9L110.034 77.8L109.834 77.7C107.567 82.7666 103.967 85.3 99.0336 85.3C95.7669 85.3 93.0669 84.2 90.9336 82C88.8003 79.8 87.7336 77.0333 87.7336 73.7C87.7336 62.8333 96.8003 57.4 114.934 57.4L124.934 19.6L121.834 19.5C121.567 19.5 121.3 19.5 121.034 19.5C117.367 19.5 114.4 20.3666 112.134 22.1C109.867 23.7666 108.734 26 108.734 28.8C108.734 30.1333 108.934 31.2333 109.334 32.1L108.534 32.7C107.8 31.9 107.434 30.5333 107.434 28.6C107.434 26.6 108.134 24.7333 109.534 23C110.934 21.2 112.734 20 114.934 19.4C115.534 19.2666 116.3 19.1333 117.234 19V18.8L114.934 18.9C108.534 18.1 103.334 16.3 99.3336 13.5C95.3336 10.6333 93.3336 6.53331 93.3336 1.19997L94.5336 1.09998C94.5336 4.16664 95.3003 6.83331 96.8336 9.09998C98.3669 11.3 100.467 13.0333 103.134 14.3C108.2 16.7 114.2 18.0333 121.134 18.3L138.334 19.1V73.3C138.334 77.3 137.6 80.3 136.134 82.3C134.667 84.2333 132.167 85.2 128.634 85.2C126.834 85.2 125.334 85 124.134 84.6L124.334 83.6C125.8 83.9333 127.134 84.1 128.334 84.1C131.667 84.1 133.934 83.2333 135.134 81.5C136.334 79.7667 136.934 77.0333 136.934 73.3V58.7ZM121.034 57.4L136.934 57.5V20.2L126.234 19.7L116.234 57.4H121.034ZM89.1336 73.7C89.1336 76.6333 90.0669 79.1 91.9336 81.1C93.8003 83.1 96.1669 84.1 99.0336 84.1C103.634 84.1 107.034 81.6666 109.234 76.8C110.434 74.0666 111.467 70.8666 112.334 67.2L114.634 58.6C97.6336 58.7333 89.1336 63.7666 89.1336 73.7ZM140.934 73.3V23.5C140.934 19.5 141.667 16.5333 143.134 14.6C144.6 12.6 147.1 11.6 150.634 11.6C152.434 11.6 153.934 11.8 155.134 12.2L154.934 13.2C153.467 12.8666 152.134 12.7 150.934 12.7C147.6 12.7 145.334 13.5666 144.134 15.3C142.934 17.0333 142.334 19.7666 142.334 23.5V73.3C142.334 77.0333 142.934 79.7667 144.134 81.5C145.334 83.2333 147.6 84.1 150.934 84.1C152.134 84.1 153.467 83.9333 154.934 83.6L155.134 84.6C153.934 85 152.434 85.2 150.634 85.2C147.1 85.2 144.6 84.2333 143.134 82.3C141.667 80.3 140.934 77.3 140.934 73.3Z" stroke="#A93338" stroke-width="0.6" mask="url(#path-1-outside-1_136_3)"/>
<path d="M193.911 84.1C199.178 84.1 201.811 81.5 201.811 76.3C201.811 74.5666 201.544 73.2666 201.011 72.4L201.911 71.8C202.711 72.8 203.111 74.5666 203.111 77.1C203.111 79.5667 202.278 81.5666 200.611 83.1C199.011 84.5666 196.511 85.3 193.111 85.3C189.711 85.3 184.111 84.2666 176.311 82.2L164.511 79.2C163.711 80.7333 162.878 82.7333 162.011 85.2L160.311 84.9V81.2C160.311 77.0666 161.511 73 163.911 69C165.178 66.8666 166.611 64.6666 168.211 62.4C169.878 60.0666 170.844 58.7 171.111 58.3L189.611 31.7C192.678 27.1666 194.911 23.4666 196.311 20.6L187.611 20.1C181.744 19.7 177.378 19.5 174.511 19.5C166.778 19.5 162.911 22.5 162.911 28.5C162.911 30.7 163.478 32.5333 164.611 34C165.744 35.4666 167.278 36.2 169.211 36.2C171.144 36.2 172.644 35.6333 173.711 34.5C174.844 33.3666 175.411 31.8666 175.411 30C175.411 29.3333 175.311 28.6666 175.111 28L176.211 27.6C176.544 28.4 176.711 29.2 176.711 30C176.711 32.2 176.044 34 174.711 35.4C173.378 36.7333 171.544 37.4 169.211 37.4C166.944 37.4 165.078 36.5666 163.611 34.9C162.211 33.1666 161.511 31 161.511 28.4C161.511 21.6666 165.978 18.3 174.911 18.3C177.778 18.3 182.144 18.5 188.011 18.9L198.011 19.5L198.211 19.6C196.744 23 194.344 27.1333 191.011 32L172.111 59.2C167.578 65.6 164.711 70.2333 163.511 73.1C162.311 75.9667 161.711 78.5333 161.711 80.8V82.5C163.111 78.3 166.578 72.2666 172.111 64.4L193.711 33.3C197.911 27.3666 200.411 22.8 201.211 19.6L202.611 19.5C202.078 22.3 199.678 26.8666 195.411 33.2L173.011 65.4C169.544 70.3333 166.911 74.5333 165.111 78L176.711 81C184.778 83.0667 190.511 84.1 193.911 84.1Z" stroke="#A93338" stroke-width="0.6" mask="url(#path-1-outside-1_136_3)"/>
<path d="M255.781 58.7L234.781 58.6L230.281 75.5C229.281 79.3 228.315 82.4333 227.381 84.9C226.448 87.3666 225.215 89.8666 223.681 92.4C220.481 97.4666 215.748 100 209.481 100V98.8C214.481 98.8 218.381 97.1 221.181 93.7C223.981 90.3666 226.215 85.7666 227.881 79.9L228.881 77.8L228.681 77.7C226.415 82.7666 222.815 85.3 217.881 85.3C214.615 85.3 211.915 84.2 209.781 82C207.648 79.8 206.581 77.0333 206.581 73.7C206.581 62.8333 215.648 57.4 233.781 57.4L243.781 19.6L240.681 19.5C240.415 19.5 240.148 19.5 239.881 19.5C236.215 19.5 233.248 20.3666 230.981 22.1C228.715 23.7666 227.581 26 227.581 28.8C227.581 30.1333 227.781 31.2333 228.181 32.1L227.381 32.7C226.648 31.9 226.281 30.5333 226.281 28.6C226.281 26.6 226.981 24.7333 228.381 23C229.781 21.2 231.581 20 233.781 19.4C234.381 19.2666 235.148 19.1333 236.081 19V18.8L233.781 18.9C227.381 18.1 222.181 16.3 218.181 13.5C214.181 10.6333 212.181 6.53331 212.181 1.19997L213.381 1.09998C213.381 4.16664 214.148 6.83331 215.681 9.09998C217.215 11.3 219.315 13.0333 221.981 14.3C227.048 16.7 233.048 18.0333 239.981 18.3L257.181 19.1V73.3C257.181 77.3 256.448 80.3 254.981 82.3C253.515 84.2333 251.015 85.2 247.481 85.2C245.681 85.2 244.181 85 242.981 84.6L243.181 83.6C244.648 83.9333 245.981 84.1 247.181 84.1C250.515 84.1 252.781 83.2333 253.981 81.5C255.181 79.7667 255.781 77.0333 255.781 73.3V58.7ZM239.881 57.4L255.781 57.5V20.2L245.081 19.7L235.081 57.4H239.881ZM207.981 73.7C207.981 76.6333 208.915 79.1 210.781 81.1C212.648 83.1 215.015 84.1 217.881 84.1C222.481 84.1 225.881 81.6666 228.081 76.8C229.281 74.0666 230.315 70.8666 231.181 67.2L233.481 58.6C216.481 58.7333 207.981 63.7666 207.981 73.7ZM259.781 73.3V23.5C259.781 19.5 260.515 16.5333 261.981 14.6C263.448 12.6 265.948 11.6 269.481 11.6C271.281 11.6 272.781 11.8 273.981 12.2L273.781 13.2C272.315 12.8666 270.981 12.7 269.781 12.7C266.448 12.7 264.181 13.5666 262.981 15.3C261.781 17.0333 261.181 19.7666 261.181 23.5V73.3C261.181 77.0333 261.781 79.7667 262.981 81.5C264.181 83.2333 266.448 84.1 269.781 84.1C270.981 84.1 272.315 83.9333 273.781 83.6L273.981 84.6C272.781 85 271.281 85.2 269.481 85.2C265.948 85.2 263.448 84.2333 261.981 82.3C260.515 80.3 259.781 77.3 259.781 73.3Z" stroke="#A93338" stroke-width="0.6" mask="url(#path-1-outside-1_136_3)"/>
<path d="M327.559 58.7L306.559 58.6L302.059 75.5C301.059 79.3 300.092 82.4333 299.159 84.9C298.225 87.3666 296.992 89.8666 295.459 92.4C292.259 97.4666 287.525 100 281.259 100V98.8C286.259 98.8 290.159 97.1 292.959 93.7C295.759 90.3666 297.992 85.7666 299.659 79.9L300.659 77.8L300.459 77.7C298.192 82.7666 294.592 85.3 289.659 85.3C286.392 85.3 283.692 84.2 281.559 82C279.425 79.8 278.359 77.0333 278.359 73.7C278.359 62.8333 287.425 57.4 305.559 57.4L315.559 19.6L312.459 19.5C312.192 19.5 311.925 19.5 311.659 19.5C307.992 19.5 305.025 20.3666 302.759 22.1C300.492 23.7666 299.359 26 299.359 28.8C299.359 30.1333 299.559 31.2333 299.959 32.1L299.159 32.7C298.425 31.9 298.059 30.5333 298.059 28.6C298.059 26.6 298.759 24.7333 300.159 23C301.559 21.2 303.359 20 305.559 19.4C306.159 19.2666 306.925 19.1333 307.859 19V18.8L305.559 18.9C299.159 18.1 293.959 16.3 289.959 13.5C285.959 10.6333 283.959 6.53331 283.959 1.19997L285.159 1.09998C285.159 4.16664 285.925 6.83331 287.459 9.09998C288.992 11.3 291.092 13.0333 293.759 14.3C298.825 16.7 304.825 18.0333 311.759 18.3L328.959 19.1V73.3C328.959 77.3 328.225 80.3 326.759 82.3C325.292 84.2333 322.792 85.2 319.259 85.2C317.459 85.2 315.959 85 314.759 84.6L314.959 83.6C316.425 83.9333 317.759 84.1 318.959 84.1C322.292 84.1 324.559 83.2333 325.759 81.5C326.959 79.7667 327.559 77.0333 327.559 73.3V58.7ZM311.659 57.4L327.559 57.5V20.2L316.859 19.7L306.859 57.4H311.659ZM279.759 73.7C279.759 76.6333 280.692 79.1 282.559 81.1C284.425 83.1 286.792 84.1 289.659 84.1C294.259 84.1 297.659 81.6666 299.859 76.8C301.059 74.0666 302.092 70.8666 302.959 67.2L305.259 58.6C288.259 58.7333 279.759 63.7666 279.759 73.7ZM331.559 73.3V23.5C331.559 19.5 332.292 16.5333 333.759 14.6C335.225 12.6 337.725 11.6 341.259 11.6C343.059 11.6 344.559 11.8 345.759 12.2L345.559 13.2C344.092 12.8666 342.759 12.7 341.559 12.7C338.225 12.7 335.959 13.5666 334.759 15.3C333.559 17.0333 332.959 19.7666 332.959 23.5V73.3C332.959 77.0333 333.559 79.7667 334.759 81.5C335.959 83.2333 338.225 84.1 341.559 84.1C342.759 84.1 344.092 83.9333 345.559 83.6L345.759 84.6C344.559 85 343.059 85.2 341.259 85.2C337.725 85.2 335.225 84.2333 333.759 82.3C332.292 80.3 331.559 77.3 331.559 73.3Z" stroke="#A93338" stroke-width="0.6" mask="url(#path-1-outside-1_136_3)"/>
<path d="M366.436 73.3C366.436 77.3 365.703 80.3 364.236 82.3C362.769 84.2333 360.269 85.2 356.736 85.2C354.936 85.2 353.436 85 352.236 84.6L352.436 83.6C353.903 83.9333 355.236 84.1 356.436 84.1C359.769 84.1 362.036 83.2333 363.236 81.5C364.436 79.7667 365.036 77.0333 365.036 73.3V20C361.303 20.2666 358.569 20.7666 356.836 21.5C352.903 23.1666 350.936 25.8666 350.936 29.6C350.936 31.2 351.269 32.6333 351.936 33.9L351.136 34.5C350.136 33.3666 349.636 31.7666 349.636 29.7C349.636 25.3 351.836 22.3 356.236 20.7C357.036 20.4333 357.769 20.2 358.436 20V19.8L356.136 20.2C349.736 20.0666 344.403 18.8 340.136 16.4C335.803 13.9333 333.369 10.0666 332.836 4.79998L334.036 4.59998C335.103 14.2 343.369 19 358.836 19C360.969 19 363.503 18.9 366.436 18.7V73.3ZM369.036 73.3V18.5C376.636 17.9666 381.703 17.7 384.236 17.7C390.236 17.7 394.603 18.8666 397.336 21.2C400.136 23.5333 401.536 27.3666 401.536 32.7C401.536 37.9666 400.036 42.2333 397.036 45.5C394.036 48.7666 390.103 50.5 385.236 50.7C387.436 52.3666 389.936 55.9333 392.736 61.4L398.736 73.2C401.336 78.4 403.503 82.4 405.236 85.2C407.036 88 409.169 90.6 411.636 93C414.103 95.4667 416.836 97.1666 419.836 98.1C422.903 99.0333 426.603 99.5 430.936 99.5V100.6C426.536 100.6 422.803 100.167 419.736 99.3C416.736 98.4333 413.936 96.8 411.336 94.4C408.736 92.0666 406.469 89.4 404.536 86.4C402.603 83.4 400.269 79.2 397.536 73.8L391.536 62C389.403 57.8 387.636 54.9 386.236 53.3C384.836 51.6333 383.369 50.7 381.836 50.5C378.236 49.9 376.436 48.1 376.436 45.1C376.436 43.5666 376.969 42.3333 378.036 41.4C379.169 40.4 380.536 39.8333 382.136 39.7L382.336 40.7C381.003 40.8333 379.903 41.3 379.036 42.1C378.236 42.8333 377.836 43.8333 377.836 45.1C377.836 48.1 380.103 49.6 384.636 49.6C389.169 49.6 392.869 48.1 395.736 45.1C398.669 42.0333 400.136 38 400.136 33C400.136 27.9333 398.869 24.3333 396.336 22.2C393.803 20 389.803 18.9 384.336 18.9C382.669 18.9 378.036 19.1333 370.436 19.6V73.3C370.436 77.0333 371.036 79.7667 372.236 81.5C373.436 83.2333 375.703 84.1 379.036 84.1C380.236 84.1 381.569 83.9333 383.036 83.6L383.236 84.6C382.036 85 380.536 85.2 378.736 85.2C375.203 85.2 372.703 84.2333 371.236 82.3C369.769 80.3 369.036 77.3 369.036 73.3Z" stroke="#A93338" stroke-width="0.6" mask="url(#path-1-outside-1_136_3)"/>
</g>
<defs>
<filter id="filter0_d_136_3" x="0.673157" y="0.773926" width="434.563" height="108.126" filterUnits="userSpaceOnUse" color-interpolation-filters="sRGB">
<feFlood flood-opacity="0" result="BackgroundImageFix"/>
<feColorMatrix in="SourceAlpha" type="matrix" values="0 0 0 0 0 0 0 0 0 0 0 0 0 0 0 0 0 0 127 0" result="hardAlpha"/>
<feOffset dy="4"/>
<feGaussianBlur stdDeviation="2"/>
<feComposite in2="hardAlpha" operator="out"/>
<feColorMatrix type="matrix" values="0 0 0 0 0 0 0 0 0 0 0 0 0 0 0 0 0 0 0.25 0"/>
<feBlend mode="normal" in2="BackgroundImageFix" result="effect1_dropShadow_136_3"/>
<feBlend mode="normal" in="SourceGraphic" in2="effect1_dropShadow_136_3" result="shape"/>
</filter>
</defs>
</svg>
